<?xml version="1.0" encoding="utf-8"?>
<!-- Generator: Adobe Illustrator 26.0.2, SVG Export Plug-In . SVG Version: 6.00 Build 0)  -->
<svg version="1.1" id="Layer_1" xmlns="http://www.w3.org/2000/svg" xmlns:xlink="http://www.w3.org/1999/xlink" x="0px" y="0px"
	 viewBox="0 0 268.8 175" style="enable-background:new 0 0 268.8 175;" xml:space="preserve">
<style type="text/css">
	.st0{clip-path:url(#SVGID_00000093899386818822159260000000805866805327753092_);fill:#E7B82C;}
	.st1{clip-path:url(#SVGID_00000093899386818822159260000000805866805327753092_);fill:#E7B72C;}
	.st2{clip-path:url(#SVGID_00000093899386818822159260000000805866805327753092_);fill:#E7B62C;}
	.st3{clip-path:url(#SVGID_00000093899386818822159260000000805866805327753092_);fill:#E8B52B;}
	.st4{clip-path:url(#SVGID_00000093899386818822159260000000805866805327753092_);fill:#E8B52C;}
	.st5{clip-path:url(#SVGID_00000093899386818822159260000000805866805327753092_);fill:#E8B42C;}
	.st6{clip-path:url(#SVGID_00000093899386818822159260000000805866805327753092_);fill:#E8B32C;}
	.st7{clip-path:url(#SVGID_00000093899386818822159260000000805866805327753092_);fill:#E8B32B;}
	.st8{clip-path:url(#SVGID_00000093899386818822159260000000805866805327753092_);fill:#E8B22B;}
	.st9{clip-path:url(#SVGID_00000093899386818822159260000000805866805327753092_);fill:#E8B12C;}
	.st10{clip-path:url(#SVGID_00000093899386818822159260000000805866805327753092_);fill:#E9B12B;}
	.st11{clip-path:url(#SVGID_00000093899386818822159260000000805866805327753092_);fill:#E9B02B;}
	.st12{clip-path:url(#SVGID_00000093899386818822159260000000805866805327753092_);fill:#E9AF2B;}
	.st13{clip-path:url(#SVGID_00000093899386818822159260000000805866805327753092_);fill:#E9AE2B;}
	.st14{clip-path:url(#SVGID_00000093899386818822159260000000805866805327753092_);fill:#E9AD2B;}
	.st15{clip-path:url(#SVGID_00000093899386818822159260000000805866805327753092_);fill:#EAAC2C;}
	.st16{clip-path:url(#SVGID_00000093899386818822159260000000805866805327753092_);fill:#E9AB2C;}
	.st17{clip-path:url(#SVGID_00000093899386818822159260000000805866805327753092_);fill:#EAAB2C;}
	.st18{clip-path:url(#SVGID_00000093899386818822159260000000805866805327753092_);fill:#EAAA2C;}
	.st19{clip-path:url(#SVGID_00000093899386818822159260000000805866805327753092_);fill:#EAA92C;}
	.st20{clip-path:url(#SVGID_00000093899386818822159260000000805866805327753092_);fill:#EAA82C;}
	.st21{clip-path:url(#SVGID_00000093899386818822159260000000805866805327753092_);fill:#EAA72C;}
	.st22{clip-path:url(#SVGID_00000093899386818822159260000000805866805327753092_);fill:#EBA62C;}
	.st23{clip-path:url(#SVGID_00000093899386818822159260000000805866805327753092_);fill:#EBA52C;}
	.st24{clip-path:url(#SVGID_00000093899386818822159260000000805866805327753092_);fill:#EBA42C;}
	.st25{clip-path:url(#SVGID_00000093899386818822159260000000805866805327753092_);fill:#EBA32C;}
	.st26{clip-path:url(#SVGID_00000093899386818822159260000000805866805327753092_);fill:#EBA22C;}
	.st27{clip-path:url(#SVGID_00000093899386818822159260000000805866805327753092_);fill:#ECA22C;}
	.st28{clip-path:url(#SVGID_00000093899386818822159260000000805866805327753092_);fill:#ECA12D;}
	.st29{clip-path:url(#SVGID_00000093899386818822159260000000805866805327753092_);fill:#ECA02D;}
	.st30{clip-path:url(#SVGID_00000093899386818822159260000000805866805327753092_);fill:#ECA02C;}
	.st31{clip-path:url(#SVGID_00000093899386818822159260000000805866805327753092_);fill:#EC9F2C;}
	.st32{clip-path:url(#SVGID_00000093899386818822159260000000805866805327753092_);fill:#EC9E2C;}
	.st33{clip-path:url(#SVGID_00000093899386818822159260000000805866805327753092_);fill:#ED9C2C;}
	.st34{clip-path:url(#SVGID_00000093899386818822159260000000805866805327753092_);fill:#ED9B2C;}
	.st35{clip-path:url(#SVGID_00000093899386818822159260000000805866805327753092_);fill:#ED9A2C;}
	.st36{clip-path:url(#SVGID_00000093899386818822159260000000805866805327753092_);fill:#ED992C;}
	.st37{clip-path:url(#SVGID_00000093899386818822159260000000805866805327753092_);fill:#ED982C;}
	.st38{clip-path:url(#SVGID_00000093899386818822159260000000805866805327753092_);fill:#EE982C;}
	.st39{clip-path:url(#SVGID_00000093899386818822159260000000805866805327753092_);fill:#ED972C;}
	.st40{clip-path:url(#SVGID_00000093899386818822159260000000805866805327753092_);fill:#EE962C;}
	.st41{clip-path:url(#SVGID_00000093899386818822159260000000805866805327753092_);fill:#EE952D;}
	.st42{clip-path:url(#SVGID_00000093899386818822159260000000805866805327753092_);fill:#EF942C;}
	.st43{clip-path:url(#SVGID_00000093899386818822159260000000805866805327753092_);fill:#EE932C;}
	.st44{clip-path:url(#SVGID_00000093899386818822159260000000805866805327753092_);fill:#EE922D;}
	.st45{clip-path:url(#SVGID_00000093899386818822159260000000805866805327753092_);fill:#EF922C;}
	.st46{clip-path:url(#SVGID_00000093899386818822159260000000805866805327753092_);fill:#EF912C;}
	.st47{clip-path:url(#SVGID_00000093899386818822159260000000805866805327753092_);fill:#EF902C;}
	.st48{clip-path:url(#SVGID_00000093899386818822159260000000805866805327753092_);fill:#F0902C;}
	.st49{clip-path:url(#SVGID_00000093899386818822159260000000805866805327753092_);fill:#F08F2C;}
	.st50{clip-path:url(#SVGID_00000093899386818822159260000000805866805327753092_);fill:#EF8E2C;}
	.st51{clip-path:url(#SVGID_00000093899386818822159260000000805866805327753092_);fill:#F08D2C;}
	.st52{clip-path:url(#SVGID_00000093899386818822159260000000805866805327753092_);fill:#F08C2C;}
	.st53{clip-path:url(#SVGID_00000093899386818822159260000000805866805327753092_);fill:#F18B2C;}
	.st54{clip-path:url(#SVGID_00000093899386818822159260000000805866805327753092_);fill:#F18A2C;}
	.st55{fill:#F5D177;}
	.st56{fill:#1B1A1A;}
	.st57{fill:#39B0DC;}
	.st58{fill:#614722;}
	.st59{fill:#6A6A6B;}
	.st60{fill:#403F40;}
	.st61{fill:#6C6C6C;}
	.st62{fill:#5B421E;}
	.st63{fill:#696969;}
	.st64{fill:#666565;}
	.st65{fill:#323334;}
	.st66{fill:#7B7A7A;}
	.st67{fill:#18457A;}
	.st68{fill:none;}
	.st69{fill:#1A1A1A;}
	.st70{fill:#606161;}
	.st71{fill:#FFFFFF;}
	.st72{fill:#0D9447;}
</style>
<g>
	<g>
		<g>
			<defs>
				<path id="SVGID_1_" d="M225.8,80.7c-17.3-48-70.3-72.8-118.2-55.4S34.8,95.6,52.1,143.5c3.5,9.6,8.4,18.3,14.4,26h144.8
					C230.5,145.2,237.1,111.9,225.8,80.7z"/>
			</defs>
			<clipPath id="SVGID_00000109740390126438768680000012664505125769978017_">
				<use xlink:href="#SVGID_1_"  style="overflow:visible;"/>
			</clipPath>
			<polygon style="clip-path:url(#SVGID_00000109740390126438768680000012664505125769978017_);fill:#E7B82C;" points="155.5,8 
				34.8,51.6 34.8,8 			"/>
			<polygon style="clip-path:url(#SVGID_00000109740390126438768680000012664505125769978017_);fill:#E7B82C;" points="163,8 
				34.8,54.3 34.8,51.6 155.5,8 			"/>
			<polygon style="clip-path:url(#SVGID_00000109740390126438768680000012664505125769978017_);fill:#E7B72C;" points="170.4,8 
				34.8,57 34.8,54.3 163,8 			"/>
			<polygon style="clip-path:url(#SVGID_00000109740390126438768680000012664505125769978017_);fill:#E7B62C;" points="177.9,8 
				34.8,59.7 34.8,57 170.4,8 			"/>
			<polygon style="clip-path:url(#SVGID_00000109740390126438768680000012664505125769978017_);fill:#E7B62C;" points="185.3,8 
				34.8,62.4 34.8,59.7 177.9,8 			"/>
			<polygon style="clip-path:url(#SVGID_00000109740390126438768680000012664505125769978017_);fill:#E8B52B;" points="192.7,8 
				34.8,65.1 34.8,62.4 185.3,8 			"/>
			<polygon style="clip-path:url(#SVGID_00000109740390126438768680000012664505125769978017_);fill:#E8B52C;" points="200.2,8 
				34.8,67.8 34.8,65.1 192.7,8 			"/>
			<polygon style="clip-path:url(#SVGID_00000109740390126438768680000012664505125769978017_);fill:#E8B42C;" points="200.8,8 
				201.6,10.1 34.8,70.4 34.8,67.8 200.2,8 			"/>
			<polygon style="clip-path:url(#SVGID_00000109740390126438768680000012664505125769978017_);fill:#E8B32C;" points="201.6,10.1 
				202.4,12.5 34.8,73.1 34.8,70.4 			"/>
			<polygon style="clip-path:url(#SVGID_00000109740390126438768680000012664505125769978017_);fill:#E8B32B;" points="202.4,12.5 
				203.3,14.9 34.8,75.8 34.8,73.1 			"/>
			<polygon style="clip-path:url(#SVGID_00000109740390126438768680000012664505125769978017_);fill:#E8B22B;" points="203.3,14.9 
				204.2,17.3 34.8,78.5 34.8,75.8 			"/>
			<polygon style="clip-path:url(#SVGID_00000109740390126438768680000012664505125769978017_);fill:#E8B12C;" points="204.2,17.3 
				205,19.7 34.8,81.2 34.8,78.5 			"/>
			<polygon style="clip-path:url(#SVGID_00000109740390126438768680000012664505125769978017_);fill:#E9B12B;" points="205,19.7 
				205.9,22 34.8,83.9 34.8,81.2 			"/>
			<polygon style="clip-path:url(#SVGID_00000109740390126438768680000012664505125769978017_);fill:#E9B02B;" points="205.9,22 
				206.7,24.4 34.8,86.6 34.8,83.9 			"/>
			<polygon style="clip-path:url(#SVGID_00000109740390126438768680000012664505125769978017_);fill:#E9B02B;" points="206.7,24.4 
				207.6,26.8 34.8,89.3 34.8,86.6 			"/>
			<polygon style="clip-path:url(#SVGID_00000109740390126438768680000012664505125769978017_);fill:#E9AF2B;" points="207.6,26.8 
				208.5,29.2 34.8,92 34.8,89.3 			"/>
			<polygon style="clip-path:url(#SVGID_00000109740390126438768680000012664505125769978017_);fill:#E9AE2B;" points="208.5,29.2 
				209.3,31.6 34.8,94.7 34.8,92 			"/>
			<polygon style="clip-path:url(#SVGID_00000109740390126438768680000012664505125769978017_);fill:#E9AE2B;" points="209.3,31.6 
				210.2,33.9 34.8,97.3 34.8,94.7 			"/>
			<polygon style="clip-path:url(#SVGID_00000109740390126438768680000012664505125769978017_);fill:#E9AD2B;" points="210.2,33.9 
				211,36.3 35.1,99.9 34.8,99.1 34.8,97.3 			"/>
			
				<rect x="30" y="68" transform="matrix(0.9404 -0.34 0.34 0.9404 -16.21 46.1232)" style="clip-path:url(#SVGID_00000109740390126438768680000012664505125769978017_);fill:#EAAC2C;" width="187.1" height="2.5"/>
			
				<rect x="30.8" y="70.4" transform="matrix(0.9404 -0.34 0.34 0.9404 -16.9677 46.5574)" style="clip-path:url(#SVGID_00000109740390126438768680000012664505125769978017_);fill:#EAAC2C;" width="187.1" height="2.5"/>
			
				<rect x="31.7" y="72.8" transform="matrix(0.9404 -0.34 0.34 0.9404 -17.7253 46.9917)" style="clip-path:url(#SVGID_00000109740390126438768680000012664505125769978017_);fill:#E9AB2C;" width="187.1" height="2.5"/>
			
				<rect x="32.5" y="75.2" transform="matrix(0.9404 -0.34 0.34 0.9404 -18.483 47.4259)" style="clip-path:url(#SVGID_00000109740390126438768680000012664505125769978017_);fill:#EAAB2C;" width="187.1" height="2.5"/>
			
				<rect x="33.4" y="77.6" transform="matrix(0.9404 -0.34 0.34 0.9404 -19.2407 47.8601)" style="clip-path:url(#SVGID_00000109740390126438768680000012664505125769978017_);fill:#EAAA2C;" width="187.1" height="2.5"/>
			
				<rect x="34.3" y="79.9" transform="matrix(0.9404 -0.34 0.34 0.9404 -19.9983 48.2943)" style="clip-path:url(#SVGID_00000109740390126438768680000012664505125769978017_);fill:#EAA92C;" width="187.1" height="2.5"/>
			
				<rect x="35.1" y="82.3" transform="matrix(0.9404 -0.34 0.34 0.9404 -20.756 48.7286)" style="clip-path:url(#SVGID_00000109740390126438768680000012664505125769978017_);fill:#EAA82C;" width="187.1" height="2.5"/>
			
				<rect x="36" y="84.7" transform="matrix(0.9404 -0.34 0.34 0.9404 -21.5137 49.1628)" style="clip-path:url(#SVGID_00000109740390126438768680000012664505125769978017_);fill:#EAA82C;" width="187.1" height="2.5"/>
			
				<rect x="36.8" y="87.1" transform="matrix(0.9404 -0.34 0.34 0.9404 -22.2714 49.5971)" style="clip-path:url(#SVGID_00000109740390126438768680000012664505125769978017_);fill:#EAA72C;" width="187.1" height="2.5"/>
			
				<rect x="37.7" y="89.5" transform="matrix(0.9404 -0.34 0.34 0.9404 -23.029 50.0313)" style="clip-path:url(#SVGID_00000109740390126438768680000012664505125769978017_);fill:#EAA72C;" width="187.1" height="2.5"/>
			
				<rect x="38.6" y="91.8" transform="matrix(0.9404 -0.34 0.34 0.9404 -23.7867 50.4655)" style="clip-path:url(#SVGID_00000109740390126438768680000012664505125769978017_);fill:#EBA62C;" width="187.1" height="2.5"/>
			
				<rect x="39.4" y="94.2" transform="matrix(0.9404 -0.34 0.34 0.9404 -24.5444 50.8997)" style="clip-path:url(#SVGID_00000109740390126438768680000012664505125769978017_);fill:#EBA52C;" width="187.1" height="2.5"/>
			
				<rect x="40.3" y="96.6" transform="matrix(0.9404 -0.34 0.34 0.9404 -25.302 51.334)" style="clip-path:url(#SVGID_00000109740390126438768680000012664505125769978017_);fill:#EBA52C;" width="187.1" height="2.5"/>
			
				<rect x="41.1" y="99" transform="matrix(0.9404 -0.34 0.34 0.9404 -26.0597 51.7682)" style="clip-path:url(#SVGID_00000109740390126438768680000012664505125769978017_);fill:#EBA42C;" width="187.1" height="2.5"/>
			
				<rect x="42" y="101.4" transform="matrix(0.9404 -0.34 0.34 0.9404 -26.8174 52.2024)" style="clip-path:url(#SVGID_00000109740390126438768680000012664505125769978017_);fill:#EBA32C;" width="187.1" height="2.5"/>
			
				<rect x="42.9" y="103.7" transform="matrix(0.9404 -0.34 0.34 0.9404 -27.5751 52.6367)" style="clip-path:url(#SVGID_00000109740390126438768680000012664505125769978017_);fill:#EBA32C;" width="187.1" height="2.5"/>
			
				<rect x="43.7" y="106.1" transform="matrix(0.9404 -0.34 0.34 0.9404 -28.3327 53.0709)" style="clip-path:url(#SVGID_00000109740390126438768680000012664505125769978017_);fill:#EBA22C;" width="187.1" height="2.5"/>
			
				<rect x="44.6" y="108.5" transform="matrix(0.9404 -0.34 0.34 0.9404 -29.0904 53.5051)" style="clip-path:url(#SVGID_00000109740390126438768680000012664505125769978017_);fill:#ECA22C;" width="187.1" height="2.5"/>
			
				<rect x="45.4" y="110.9" transform="matrix(0.9404 -0.34 0.34 0.9404 -29.8481 53.9393)" style="clip-path:url(#SVGID_00000109740390126438768680000012664505125769978017_);fill:#ECA12D;" width="187.1" height="2.5"/>
			
				<rect x="46.3" y="113.3" transform="matrix(0.9404 -0.34 0.34 0.9404 -30.6057 54.3736)" style="clip-path:url(#SVGID_00000109740390126438768680000012664505125769978017_);fill:#ECA02D;" width="187.1" height="2.5"/>
			
				<rect x="47.2" y="115.6" transform="matrix(0.9404 -0.34 0.34 0.9404 -31.3634 54.8078)" style="clip-path:url(#SVGID_00000109740390126438768680000012664505125769978017_);fill:#ECA02C;" width="187.1" height="2.5"/>
			
				<rect x="48" y="118" transform="matrix(0.9404 -0.34 0.34 0.9404 -32.1211 55.242)" style="clip-path:url(#SVGID_00000109740390126438768680000012664505125769978017_);fill:#EC9F2C;" width="187.1" height="2.5"/>
			
				<rect x="48.9" y="120.4" transform="matrix(0.9404 -0.34 0.34 0.9404 -32.8788 55.6763)" style="clip-path:url(#SVGID_00000109740390126438768680000012664505125769978017_);fill:#EC9E2C;" width="187.1" height="2.5"/>
			
				<rect x="49.7" y="122.8" transform="matrix(0.9404 -0.34 0.34 0.9404 -33.6364 56.1105)" style="clip-path:url(#SVGID_00000109740390126438768680000012664505125769978017_);fill:#EC9E2C;" width="187.1" height="2.5"/>
			
				<rect x="50.6" y="125.1" transform="matrix(0.9404 -0.34 0.34 0.9404 -34.3941 56.5447)" style="clip-path:url(#SVGID_00000109740390126438768680000012664505125769978017_);fill:#ED9C2C;" width="187.1" height="2.5"/>
			
				<rect x="51.5" y="127.5" transform="matrix(0.9404 -0.34 0.34 0.9404 -35.1518 56.9789)" style="clip-path:url(#SVGID_00000109740390126438768680000012664505125769978017_);fill:#ED9C2C;" width="187.1" height="2.5"/>
			
				<rect x="52.3" y="129.9" transform="matrix(0.9404 -0.34 0.34 0.9404 -35.9094 57.4132)" style="clip-path:url(#SVGID_00000109740390126438768680000012664505125769978017_);fill:#ED9B2C;" width="187.1" height="2.5"/>
			
				<rect x="53.2" y="132.3" transform="matrix(0.9404 -0.34 0.34 0.9404 -36.6671 57.8474)" style="clip-path:url(#SVGID_00000109740390126438768680000012664505125769978017_);fill:#ED9B2C;" width="187.1" height="2.5"/>
			
				<rect x="54" y="134.7" transform="matrix(0.9404 -0.34 0.34 0.9404 -37.4248 58.2816)" style="clip-path:url(#SVGID_00000109740390126438768680000012664505125769978017_);fill:#ED9A2C;" width="187.1" height="2.5"/>
			<polygon style="clip-path:url(#SVGID_00000109740390126438768680000012664505125769978017_);fill:#ED992C;" points="236,105.3 
				236.8,107.7 65.9,169.5 60.2,169.5 60,168.9 			"/>
			<polygon style="clip-path:url(#SVGID_00000109740390126438768680000012664505125769978017_);fill:#ED982C;" points="236.8,107.7 
				237.1,108.4 237.1,110.3 73.4,169.5 65.9,169.5 			"/>
			<polygon style="clip-path:url(#SVGID_00000109740390126438768680000012664505125769978017_);fill:#EE982C;" points="237.1,113 
				80.8,169.5 73.4,169.5 237.1,110.3 			"/>
			<polygon style="clip-path:url(#SVGID_00000109740390126438768680000012664505125769978017_);fill:#ED972C;" points="237.1,115.7 
				88.2,169.5 80.8,169.5 237.1,113 			"/>
			<polygon style="clip-path:url(#SVGID_00000109740390126438768680000012664505125769978017_);fill:#ED972C;" points="237.1,118.4 
				95.7,169.5 88.2,169.5 237.1,115.7 			"/>
			<polygon style="clip-path:url(#SVGID_00000109740390126438768680000012664505125769978017_);fill:#EE962C;" points="237.1,121 
				103.1,169.5 95.7,169.5 237.1,118.4 			"/>
			<polygon style="clip-path:url(#SVGID_00000109740390126438768680000012664505125769978017_);fill:#EE952D;" points="237.1,123.7 
				110.6,169.5 103.1,169.5 237.1,121 			"/>
			<polygon style="clip-path:url(#SVGID_00000109740390126438768680000012664505125769978017_);fill:#EE952D;" points="237.1,126.4 
				118,169.5 110.6,169.5 237.1,123.7 			"/>
			<polygon style="clip-path:url(#SVGID_00000109740390126438768680000012664505125769978017_);fill:#EF942C;" points="237.1,129.1 
				125.4,169.5 118,169.5 237.1,126.4 			"/>
			<polygon style="clip-path:url(#SVGID_00000109740390126438768680000012664505125769978017_);fill:#EE932C;" points="237.1,131.8 
				132.9,169.5 125.4,169.5 237.1,129.1 			"/>
			<polygon style="clip-path:url(#SVGID_00000109740390126438768680000012664505125769978017_);fill:#EE932C;" points="237.1,134.5 
				140.3,169.5 132.9,169.5 237.1,131.8 			"/>
			<polygon style="clip-path:url(#SVGID_00000109740390126438768680000012664505125769978017_);fill:#EE922D;" points="237.1,137.2 
				147.8,169.5 140.3,169.5 237.1,134.5 			"/>
			<polygon style="clip-path:url(#SVGID_00000109740390126438768680000012664505125769978017_);fill:#EF922C;" points="237.1,139.9 
				155.2,169.5 147.8,169.5 237.1,137.2 			"/>
			<polygon style="clip-path:url(#SVGID_00000109740390126438768680000012664505125769978017_);fill:#EF912C;" points="237.1,142.6 
				162.6,169.5 155.2,169.5 237.1,139.9 			"/>
			<polygon style="clip-path:url(#SVGID_00000109740390126438768680000012664505125769978017_);fill:#EF902C;" points="237.1,145.3 
				170.1,169.5 162.6,169.5 237.1,142.6 			"/>
			<polygon style="clip-path:url(#SVGID_00000109740390126438768680000012664505125769978017_);fill:#F0902C;" points="237.1,147.9 
				177.5,169.5 170.1,169.5 237.1,145.3 			"/>
			<polygon style="clip-path:url(#SVGID_00000109740390126438768680000012664505125769978017_);fill:#F08F2C;" points="237.1,150.6 
				185,169.5 177.5,169.5 237.1,147.9 			"/>
			<polygon style="clip-path:url(#SVGID_00000109740390126438768680000012664505125769978017_);fill:#EF8E2C;" points="237.1,153.3 
				192.4,169.5 185,169.5 237.1,150.6 			"/>
			<polygon style="clip-path:url(#SVGID_00000109740390126438768680000012664505125769978017_);fill:#EF8E2C;" points="237.1,156 
				199.8,169.5 192.4,169.5 237.1,153.3 			"/>
			<polygon style="clip-path:url(#SVGID_00000109740390126438768680000012664505125769978017_);fill:#F08D2C;" points="237.1,158.7 
				207.3,169.5 199.8,169.5 237.1,156 			"/>
			<polygon style="clip-path:url(#SVGID_00000109740390126438768680000012664505125769978017_);fill:#F08D2C;" points="237.1,161.4 
				214.7,169.5 207.3,169.5 237.1,158.7 			"/>
			<polygon style="clip-path:url(#SVGID_00000109740390126438768680000012664505125769978017_);fill:#F08C2C;" points="237.1,164.1 
				222.2,169.5 214.7,169.5 237.1,161.4 			"/>
			<polygon style="clip-path:url(#SVGID_00000109740390126438768680000012664505125769978017_);fill:#F18B2C;" points="237.1,166.8 
				229.6,169.5 222.2,169.5 237.1,164.1 			"/>
			<polygon style="clip-path:url(#SVGID_00000109740390126438768680000012664505125769978017_);fill:#F18B2C;" points="237.1,169.5 
				237,169.5 229.6,169.5 237.1,166.8 			"/>
			<polygon style="clip-path:url(#SVGID_00000109740390126438768680000012664505125769978017_);fill:#F18A2C;" points="237,169.5 
				237.1,169.5 237.1,169.5 			"/>
		</g>
	</g>
	<g>
		<path class="st55" d="M109.5,148.8c-0.7,0-1.4,0-2.1,0.1c-0.1,0-0.2,0-0.3,0c-2.7,0.1-5.3,0.2-8,0.3c-3.8,0.1-7.6,0.1-11.3-0.4
			c0-3.7,0-7.4,0-11.1c0-4,0-4-4-4c-2.7,0-3.1,0.3-3.7,2.8c-0.8,3.4-0.9,6.8-0.8,10.3c0,0.6,0.1,1.3-0.9,1.2
			c-4.2-0.6-8.2-1.6-12.3-2.5c-1.1-7.7,1.7-14.3,5.6-20.6c0.8-1.3,2-2.5,3.4-3.3c2.4-1.4,4.7-2.9,7-4.4c0.4-0.3,0.7-0.6,1.1-0.9
			c3.1-0.3,6.1-1.3,9.3-1.8c-1.7,1.4-3.5,2.8-5.2,4.3c-0.1,0.2-0.3,0.3-0.4,0.5c0,0-0.1,0-0.1,0.1c0,0,0,0.1,0,0.1
			c0-0.1,0.1-0.1,0.1-0.2c0.3,0.1,0.5,0,0.6-0.2c2.1-1.1,4.2-2.1,6.3-3.2c3.7-1.9,7.4-3.8,11.4-5.2c-0.3,0.4-0.6,0.7-1,1
			c-2.6,2.3-5.3,4.5-7.7,7c-0.3,0.3-0.8,0.6-0.6,1.1c0.2,0.4,0.7,0.2,1.1,0.2c1.5-0.2,3-0.4,4.5-0.5c0.9-0.1,1.4-0.4,1.8-1.2
			c0.7-1.4,1.7-2.6,2.7-3.8c3.3-3.8,7.4-6.4,12.3-7.8c-0.6-0.1-1.1-0.1-1.6,0c-3.8,0.7-7.6,1.5-11.3,2.4c-4,1-7.9,2.1-11.9,3.1
			c1-1.1,2.5-1.3,3.7-1.9c2-1,4.1-1.8,6.2-2.6c1.1-0.4,1.9-1,2.3-2.2c0.9-2.8,2-5.6,2.9-8.4c0.3-0.9,0.7-1.2,1.6-1.1
			c3.5,0.5,7,0.8,10.5,1.4c2.2,0.3,4.2,0.3,6.3-0.8c4.9-2.4,10.3-3.4,15.7-3.4c3.7-0.1,7.4-0.3,10.9-1.6c0.5-0.2,1-0.3,1.6-0.3
			c-0.4,0.2-0.8,0.4-1.2,0.6c-5.7,2.1-11.3,4.2-17,6.3c-4.7,1.7-9.4,3.5-14.1,5.3c0,0.1,0.1,0.3,0.1,0.4c5.4-1.2,10.7-2.4,16.1-3.6
			c0,0.1,0.1,0.1,0.1,0.2c-1.3,0.8-2.6,1.7-3.9,2.5c6.6-1.9,13.1-4,19.7-6.1c0.5-0.2,0.8-0.5,0.9-1c0.2-1,0.5-2,0.8-3
			c0.1-0.5,0.5-0.7,1-0.7c0.6,0.1,0.3,0.6,0.4,0.9c0.1,0.6-0.1,1.3,0.2,2.1c1-1,2.5-1.1,3-2.5c1.8-1.2,3.6-2.4,5.4-3.6
			c0.3-0.2,0.6-0.7,1.1-0.4c-0.2,0.3-0.4,0.6-0.6,0.8c-3.8,4.3-7.5,8.7-11.1,13.2c-2.6,3.3-5,6.7-7.6,10c-5.4,7.1-5.7,15.1-4.8,23.4
			c0.3,3,1.7,5.7,2.9,8.4c0.4,0.8,0.4,1.3-0.7,1.4c-3.6,0.4-7.3,0.8-10.9,1.1c-3.1,0.3-6.2,0.6-9.3,0.8c-0.7-0.4-1.4-1-2.4-0.7
			c2.7,2.5,3.7,6.1,2.9,9.9c-0.4,1.9-1.1,3.7-2.9,4.8c-2.2,0.2-3.3-0.5-4.3-2.7c-1.2-2.9-1.2-5.9-0.2-8.9c0.2-0.5,0.3-1,0.5-1.4
			c-0.2-0.1-0.3-0.3-0.5-0.3c-2.2-0.3-4.4,0.5-6.6,0.3c-0.1-0.2-0.2-0.2-0.4-0.1c-0.4,0-0.7,0-1.1,0
			C110.2,148.5,109.8,148.7,109.5,148.8z M122.7,150.1c-0.8-0.5-1.5-0.1-2,0.5c-1.6,1.8-1.7,5.9-0.1,7.7c0.5,0.6,1.1,1.2,2,0.6
			c0.1,0,0.2-0.1,0.3-0.1c0.1-0.1,0.2-0.1,0.2-0.2C125.4,156.2,125.2,151.7,122.7,150.1z M139.1,112.1c-10.8,5.1-21.6,9.6-32.4,14.1
			c-0.7,0.3-0.8,0.8-0.8,1.5c-0.3,5-0.6,9.9-0.9,14.9c-0.2,3.1-0.2,3.1,2.8,3c0.2,0,0.4,0,0.6,0c7.2-0.3,14.4-0.5,21.6-1.2
			c1-0.1,2.3,0.2,3-0.4c0.8-0.7,0.3-2,0.4-3c0.5-7.4,2.3-14.5,4.1-21.6C138,117,138.7,114.7,139.1,112.1z M101.6,127.3
			c-2.6,0.9-4.9,1.8-7.2,2.6c-0.6,0.2-0.7,0.5-0.7,1.1c0,5.1,0,10.1,0,15.2c0,0.7,0.2,1,0.9,0.9c2.1,0,4.1,0,6.2,0
			c0.6,0,0.9-0.1,0.9-0.8C101.5,140.1,101.6,133.8,101.6,127.3z"/>
	</g>
	<g>
		<path class="st56" d="M125.6,147.8c3.1-0.3,6.2-0.5,9.3-0.8c3.6-0.4,7.3-0.8,10.9-1.1c1.1-0.1,1.1-0.6,0.7-1.4
			c-1.2-2.7-2.6-5.4-2.9-8.4c-0.9-8.3-0.7-16.3,4.8-23.4c2.5-3.3,5-6.8,7.6-10c3.6-4.5,7.3-8.9,11.1-13.2c0.2-0.2,0.4-0.5,0.6-0.8
			c0,0,0,0,0,0c0.4-0.1,0.6-0.4,0.8-0.7c0.7-0.8,1.3-0.4,2,0.1c7,5.6,11.4,12.8,14.2,21.2c1,3,1,3,4.1,3.3c4.1,0.5,8.1,1,12.2,1.6
			c0.1,0,0.3,0.1,0.6,0.3c-2.7,1-5.2,1.9-7.7,2.8c-2.1,0.8-4.1,1.5-6.2,2.2c-0.7,0.2-1.1,0.5-0.9,1.3c0.7,4.4,1.3,8.9,1.6,13.3
			c0.1,0.7,0.4,0.7,0.9,0.8c1.6,0.2,3.1,0,4.7-0.1c0.8-0.1,1,0.2,1,1c-0.1,0.9,0,1.8-0.1,2.6c0,0.5,0,0.9,0.7,0.8
			c-4.6,1-9.3,1.5-13.9,2.3c-8,1.3-16,2.5-23.9,3.7c-3.7,0.6-7.4,1.1-11,1.9c-1.9,0.2-3.7,0.5-5.6,0.7c-4.8,0.3-9.5,0.5-14.3,0.8
			C126.1,148.4,125.7,148.3,125.6,147.8z M174.9,132.9c0.4,0,0.8-0.1,1.2,0c1.5,0.2,1.8-0.3,1.7-1.8c-0.4-3.3-0.6-6.7-0.8-10
			c-0.1-1.2-0.4-1.7-1.6-1.8c-1-0.1-1.9-0.3-2.9-0.6c-1.4-0.5-1.6,0.1-1.4,1.3c0.3,3.3,0.6,6.7,0.8,10
			C172.1,132.9,172,132.9,174.9,132.9z M161.3,120.2c0.4,4.1,0.8,8,1.2,11.9c0.1,0.5,0.2,0.8,0.8,0.7c1.3-0.2,2.6-0.4,3.9-0.6
			c0.6-0.1,0.9-0.4,0.8-1.1c-0.4-4-0.8-7.9-1.1-11.9c-0.1-0.7-0.4-0.8-0.9-0.8c-1.1,0.1-2.2,0.3-3.3,0.3
			C161.5,118.9,161,119.2,161.3,120.2z M154.2,132c-0.2-2.8-0.5-5.6-0.7-8.5c-0.1-0.8-0.3-1-1.1-0.9c-1.9,0.4-3.7,0.8-5.6,1.1
			c-0.5,0.1-0.7,0.3-0.6,0.9c0.5,2.9,0.9,5.7,1.4,8.6c0.1,0.5,0.2,0.8,0.8,0.7c1.7-0.3,3.4-0.7,5.2-1
			C154.1,132.9,154.4,132.7,154.2,132z"/>
	</g>
	<g>
		<path class="st57" d="M232.2,156.9c3.7-3,7.2-6.3,10.6-9.7c7.3,1.2,14.7,2.2,21.8,4.4c1.1,0.4,2.2,0.7,3.2,1.4
			c0.4,0.3,1.1,0.6,1.1,1.1c0,0.5-0.7,0.7-1.2,0.9c-1.6,0.7-3.4,0.8-5.1,1c-5.6,0.5-11.2,0.2-16.8-0.1c-3.7-0.2-7.3,0.5-10.8,1.4
			C233.9,157.6,233,157.7,232.2,156.9z"/>
	</g>
	<g>
		<path class="st58" d="M161.1,92.5c-0.5,1.4-2,1.5-3,2.5c-0.4-0.8-0.1-1.5-0.2-2.1c0-0.3,0.2-0.9-0.4-0.9c-0.5,0-0.9,0.2-1,0.7
			c-0.3,1-0.5,2-0.8,3c-0.1,0.5-0.3,0.9-0.9,1c-6.5,2.1-13.1,4.2-19.7,6.1c1.3-0.8,2.6-1.7,3.9-2.5c0.1-0.1,0.3,0,0.3-0.2
			c-0.2,0-0.3,0-0.5,0.1c-5.4,1.2-10.7,2.4-16.1,3.6c0-0.1-0.1-0.3-0.1-0.4c4.7-1.8,9.4-3.5,14.1-5.3c5.7-2.1,11.3-4.2,17-6.3
			c0.4-0.1,0.8-0.4,1.2-0.6C157.5,89.7,159.5,90.4,161.1,92.5z"/>
	</g>
	<g>
		<path class="st58" d="M87.3,118.7c1.7-1.4,3.5-2.8,5.2-4.3c-3.2,0.5-6.2,1.4-9.3,1.8c0.9-0.9,2.2-1.2,3.3-1.7
			c2.3-0.9,4.6-1.8,6.9-2.6c4-1,7.9-2.1,11.9-3.1c3.7-1,7.5-1.8,11.3-2.4c0.5-0.1,1.1-0.1,1.6,0c-4.9,1.4-9,4-12.3,7.8
			c-1,1.2-2,2.4-2.7,3.8c-0.4,0.8-0.9,1.1-1.8,1.2c-1.5,0.1-3,0.4-4.5,0.5c-0.4,0-0.9,0.2-1.1-0.2c-0.2-0.5,0.3-0.8,0.6-1.1
			c2.4-2.5,5.1-4.7,7.7-7c0.3-0.3,0.7-0.6,1-1c-4,1.4-7.7,3.4-11.4,5.2c-2.1,1-4.2,2.1-6.3,3.2C87.4,118.9,87.4,118.8,87.3,118.7z"
			/>
	</g>
	<g>
		<path class="st59" d="M146.4,147c3.6-0.8,7.4-1.3,11-1.9c8-1.2,16-2.4,23.9-3.7c4.6-0.8,9.3-1.3,13.9-2.3c0.2-0.2,0.3-0.3,0.6-0.3
			c1,0.6,1.9,0,2.9-0.2c3.8-0.4,7.6-1.5,11.4-1.3c0.7,0,1.4,0,2.1,0.2c-5.9,1.1-11.7,2.2-17.6,3.3c-7.5,1.4-14.9,2.6-22.5,3.7
			c-4.7,0.6-9.5,1.1-14.2,1.6c-3.7,0.4-7.3,1.1-11,1.2C146.8,147.3,146.6,147.2,146.4,147z"/>
	</g>
	<g>
		<path class="st60" d="M198.8,138.6c-1,0.2-1.9,0.8-2.9,0.2c1-0.1,1.9-0.7,2.9-0.6C198.9,138.3,198.8,138.5,198.8,138.6z"/>
	</g>
	<g>
		<path class="st55" d="M168.3,87.8c-0.2,0.3-0.3,0.7-0.8,0.7C167.5,88,168,88,168.3,87.8z"/>
	</g>
	<g>
		<path class="st61" d="M212.6,158.3c2.9-1.9,6-3.6,8.8-5.7c1.9-1.5,3.6-3.1,5.2-4.9c3-3.3,3.9-7.3,4.2-11.6c0.2-2.9,3.1-6.1,6-6.4
			c2.5-0.3,4.4,1.6,4.6,4.6c0.2,3.3-1.4,5.8-3.4,8.1c-3.5,4-7.9,6.8-12.4,9.4c-3.8,2.2-7.8,4.3-11.7,6.4c-0.3,0.2-0.7,0.3-1.1,0.4
			C212.7,158.4,212.6,158.4,212.6,158.3z"/>
	</g>
	<g>
		<path class="st62" d="M78.4,147.9c1,0.1,0.9-0.6,0.9-1.2c0-3.5,0-6.9,0.8-10.3c0.7-2.6,1-2.8,3.7-2.8c4,0,4,0,4,4
			c0,3.7,0,7.4,0,11.1C84.6,148.8,81.5,148.3,78.4,147.9z"/>
	</g>
	<g>
		<path class="st63" d="M220.4,118.5c1.5-1.8,3.6-2.9,5.6-4.1c8.5-4.6,17.6-7.8,26.8-10.7c0.1,0,0.2,0,0.5,0.1
			c-1.3,1.1-2.1,2.3-2.3,4c-0.1,0.7-0.1,1.3,0,2c0.4,5.2,1.2,10.4,0.5,15.7c-0.1,0.9-0.3,1.8-0.7,2.7c-0.3,0.6-0.7,1.1-1.6,1.1
			c1.7-3.3,1.6-6.8,1.5-10.3c-0.1-2.6-0.9-5.2-1.3-7.8c-0.1-1.1-0.2-2.1,0-3.2c0.3-1.1-0.1-1.4-1.2-1c-9.5,3.2-19.1,6.3-27.7,11.6
			C220.6,118.6,220.5,118.5,220.4,118.5z"/>
	</g>
	<g>
		<path class="st63" d="M234.1,116.5c0.3-0.5,0.7-0.2,1.1-0.3c1.4,0.7,2.3,1.8,3.1,3.2c0.7,1.3,0.9,2.8,1.5,4.6
			c0.4-2.1-0.7-3.5-0.7-5.1c0.6,0.3,0.6,1.4,1,1.5c1.2,0.3,0.6,1.1,0.7,1.7c0.1,0.5-0.2,1.3,0.7,1.3c1.1,0,2.3-0.7,2.2-1.6
			c0-1-0.3-2-0.8-3c-0.1-0.2-0.1-0.4-0.2-1c1.2,0.9,1.4,2,1.6,3c0.3,1.1,0.6,1.4,1.6,0.7c0.5-0.3,1-0.5,1.8-0.8
			c-3.2,5.1-16.5,7.2-20.6,3.5c1-0.2,2.2,0.9,2.9,0c0.5-0.7,0.1-1.9,0.2-2.8c0.1-1.7,0.7-3.2,1.9-4.5c0.4-0.5,0.9-0.9,1.6-0.3
			c-1.4,0.8-2.2,2.7-1.8,4.5c0.6-0.2,1.1-0.8,1.9-0.7c-0.9,1-1.8,1.9-2,3.2c-0.1,0.7,0,1.2,0.9,1.2c1.6,0,3.2-0.1,4.8-0.4
			c1-0.1,1-0.6,0.7-1.4c-0.8-1.8-2.1-2.7-4.4-2.7c1.1-0.6,2.2-0.2,3.6-0.1C236.5,118.7,236.1,117,234.1,116.5z"/>
	</g>
	<g>
		<path class="st59" d="M78.7,161.6c-3.6-0.4-6.8-1.8-9.9-3.4c-2.9-1.4-5.5-3.3-7.5-5.9c-1.4-1.8-2.2-3.8-2.4-6.4
			c1.1,1.5,1.9,2.7,2.9,3.8c2.6,3,5.3,5.8,9.1,7.4c0.8,0.3,1.7,0.8,2.5,0.8C75.9,157.9,77.3,159.7,78.7,161.6L78.7,161.6z"/>
	</g>
	<g>
		<path class="st63" d="M138.4,170c-8.5-0.1-17.1,0-25.6-0.3c-7-0.2-14-0.5-20.9-2c-1-0.2-1.9-0.5-2.8-0.8c-0.3-0.1-0.6-0.2-0.8-0.6
			c16.7,2,33.4,3.1,50.2,3.3C138.4,169.7,138.4,169.8,138.4,170z"/>
	</g>
	<g>
		<path class="st64" d="M171,161c-8.3,0.7-16.6,1-25,0.9c-1.8,0-3.5,0-5.2-0.3c-0.4-0.1-0.9,0-1.2-0.6c5.5,0,11,0.1,16.4,0
			c5-0.1,10-0.3,15.1-0.4C171,160.7,171,160.9,171,161z"/>
	</g>
	<g>
		<path class="st58" d="M125.6,147.8c0.2,0.4,0.5,0.6,0.9,0.7c-0.2,0.6,0.2,0.9,0.6,1.2c0.3,2,0.8,4,0.6,6c-0.2,2-0.7,3.9-2.3,5.3
			c-0.7,0.6-1.4,0.9-2.3,0.7c1.8-1.1,2.5-2.9,2.9-4.8c0.8-3.8-0.2-7.4-2.9-9.9C124.2,146.8,124.8,147.4,125.6,147.8z"/>
	</g>
	<g>
		<path class="st64" d="M87.1,151.3c-8,0.2-15.6-1.2-23.1-3.8C71.6,148.9,79.2,150.7,87.1,151.3z"/>
	</g>
	<g>
		<path class="st56" d="M234.1,116.5c2,0.4,2.4,2.2,3.3,3.7c-1.4-0.1-2.6-0.5-3.6,0.1l0,0c-0.7-0.1-1.2,0.4-1.9,0.7
			c-0.4-1.8,0.4-3.7,1.8-4.5C233.8,116.5,234,116.5,234.1,116.5z"/>
	</g>
	<g>
		<path class="st63" d="M146.7,155.7c-0.2,0.1-0.4,0.2-0.7,0.2c-4.6,0.1-9.1,0.6-13.7-0.2c-0.5-0.1-1.1,0-1.1-0.7
			c0-0.8,0.7-0.5,1.2-0.4C137.2,155.1,141.9,155.4,146.7,155.7z"/>
	</g>
	<g>
		<path class="st59" d="M127,149.7c-0.4-0.3-0.7-0.6-0.6-1.2c4.8-0.3,9.5-0.5,14.3-0.8c0,0.1,0,0.3,0,0.4
			C136.2,148.7,131.6,149.2,127,149.7z"/>
	</g>
	<g>
		<path class="st64" d="M119.2,148.8c-0.2,0.5-0.3,1-0.5,1.4c-0.5-0.5-1.1-0.3-1.7-0.3c-3.9,0-7.9,0-11.9-0.1
			c2.1-0.4,4.1-0.5,6.2-0.5C114,149.3,116.6,149.1,119.2,148.8z"/>
	</g>
	<g>
		<path class="st60" d="M138.4,170c0-0.2,0-0.3,0-0.5c5.5,0,11,0,16.4,0c0,0.1,0,0.2,0,0.3c-3,0-6.1-0.1-9.1,0.1
			C143.3,170,140.9,170.1,138.4,170z"/>
	</g>
	<g>
		<path class="st60" d="M183.7,168c-4.8,0.4-9.6,0.9-14.4,0.8c4.8-0.4,9.6-0.8,14.4-1.2C183.7,167.7,183.7,167.8,183.7,168z"/>
	</g>
	<g>
		<path class="st65" d="M239,118.9c0.1,1.6,1.1,3,0.7,5.1c-0.5-1.8-0.7-3.3-1.5-4.6c-0.8-1.4-1.7-2.5-3.1-3.2c0.8-1,1.2,0.1,1.8,0.3
			c0.4,0.1,0.4,0.7,0.8,0.9c0.1,0.1,0.2,0.2,0.3,0.3c0,0,0,0,0,0c0,0.3,0,0.5,0.3,0.6c0,0,0,0,0,0
			C238.5,118.6,238.6,118.9,239,118.9L239,118.9z"/>
	</g>
	<g>
		<path class="st64" d="M140.8,148.1c0-0.1,0-0.2,0-0.4c1.9-0.2,3.7-0.5,5.6-0.7c0.1,0.2,0.4,0.3,0.7,0.3
			C145,147.8,142.9,148,140.8,148.1z"/>
	</g>
	<g>
		<path class="st65" d="M154.9,169.8c0-0.1,0-0.2,0-0.3c1.2-0.4,2.5-0.3,3.7-0.3c1.9,0,3.8,0,5.6-0.3c0,0.1,0,0.2,0,0.3
			c-0.9,0.4-1.9,0.4-2.9,0.3C159.2,169.4,157.1,169.7,154.9,169.8z"/>
	</g>
	<g>
		<path class="st60" d="M160.4,154.5c-2.6,0.7-5.2,1.1-7.8,0.7C155.2,155,157.8,154.8,160.4,154.5z"/>
	</g>
	<g>
		<path class="st60" d="M171,161c0-0.1,0-0.3,0.1-0.4c2-0.2,4-0.4,6-0.5C175.1,160.8,173,160.8,171,161z"/>
	</g>
	<g>
		<path class="st60" d="M186.3,158.7c-1.6,1.1-3.4,1.2-5.3,0.9C182.7,159.3,184.5,159,186.3,158.7L186.3,158.7z"/>
	</g>
	<g>
		<path class="st60" d="M242.1,117.1c-0.7-0.2-1-0.7-1.5-1.4c1.1,0.2,1.5,0.8,2,1.4C242.4,117.1,242.2,117.1,242.1,117.1z"/>
	</g>
	<g>
		<path class="st60" d="M164.3,169.2c0-0.1,0-0.2,0-0.3c1.2,0,2.3,0,3.5,0c0,0.1,0,0.2,0,0.3C166.6,169.2,165.4,169.2,164.3,169.2z"
			/>
	</g>
	<g>
		<path class="st60" d="M109.5,148.8c0.4-0.1,0.8-0.2,1.2-0.1C110.2,149.1,109.9,149.1,109.5,148.8z"/>
	</g>
	<g>
		<path class="st63" d="M242.1,117.1c0.2,0,0.3,0,0.5,0c0.1,0.2,0.4,0.4,0.1,0.5C242.3,117.8,242.3,117.3,242.1,117.1z"/>
	</g>
	<g>
		<path class="st63" d="M239,118.9c-0.4,0-0.6-0.2-0.6-0.6C238.9,118.3,239,118.5,239,118.9z"/>
	</g>
	<g>
		<path class="st61" d="M208.1,160.5c0.1,0,0.2,0.1,0.3,0.1c-0.1,0.1-0.1,0.2-0.2,0.3c0,0-0.1,0-0.2-0.1
			C208,160.7,208.1,160.6,208.1,160.5z"/>
	</g>
	<g>
		<path class="st61" d="M210.2,159.5c0.2-0.2,0.3-0.3,0.5-0.1c-0.1,0.1-0.3,0.2-0.4,0.3C210.3,159.6,210.3,159.5,210.2,159.5z"/>
	</g>
	<g>
		<path class="st63" d="M238.5,118.3c-0.3-0.1-0.3-0.3-0.3-0.6C238.4,117.8,238.5,118,238.5,118.3z"/>
	</g>
	<g>
		<path class="st60" d="M239.5,115.3c0,0,0-0.1,0-0.1c0,0,0.1,0.1,0.1,0.1C239.6,115.3,239.6,115.3,239.5,115.3z"/>
	</g>
	<g>
		<path class="st63" d="M219.1,119.8c0,0.1-0.1,0.3-0.1,0.4c0,0-0.1,0-0.1-0.1C218.9,120,219,119.9,219.1,119.8
			C219.1,119.8,219.1,119.8,219.1,119.8z"/>
	</g>
	<g>
		<path class="st60" d="M186.2,158.7c0.1-0.1,0.2-0.1,0.3-0.2c0,0,0.1,0.1,0.1,0.1C186.5,158.6,186.4,158.6,186.2,158.7
			C186.3,158.7,186.2,158.7,186.2,158.7z"/>
	</g>
	<g>
		<path class="st61" d="M209.7,160C209.6,160,209.6,160.1,209.7,160c-0.1,0.1-0.2,0-0.2,0C209.5,160,209.5,159.9,209.7,160
			C209.6,159.9,209.6,160,209.7,160z"/>
	</g>
	<g>
		<path class="st60" d="M107.1,148.9c0.1,0,0.2,0,0.3,0C107.3,149,107.2,149,107.1,148.9z"/>
	</g>
	<g>
		<path class="st61" d="M209,160.2C209,160.2,209,160.3,209,160.2c0,0.1,0,0.2,0,0.2c0,0-0.1-0.1-0.1-0.1
			C208.9,160.2,208.9,160.2,209,160.2z"/>
	</g>
	<g>
		<path class="st60" d="M111.7,148.7c0.1-0.2,0.3-0.1,0.4,0.1C112,148.7,111.8,148.7,111.7,148.7z"/>
	</g>
	<g>
		<path class="st63" d="M238.2,117.7c-0.1-0.1-0.2-0.2-0.3-0.3C237.9,117.5,238,117.6,238.2,117.7z"/>
	</g>
	<g>
		<path class="st63" d="M220.6,118.7c-0.1,0-0.2,0.1-0.3,0.1c0-0.1,0.1-0.2,0.1-0.3C220.5,118.5,220.6,118.6,220.6,118.7z"/>
	</g>
	<g>
		<path class="st59" d="M78.7,161.6c0,0,0.1,0,0.1,0.1c0,0,0,0.1,0,0.1C78.8,161.7,78.7,161.6,78.7,161.6
			C78.7,161.6,78.7,161.6,78.7,161.6z"/>
	</g>
	<g>
		<path class="st61" d="M212.7,158.5c-0.1,0.1-0.2,0.2-0.3,0c0,0,0.1-0.1,0.2-0.2C212.6,158.4,212.7,158.4,212.7,158.5z"/>
	</g>
	<g>
		<path class="st63" d="M219.4,119.5c0,0.2-0.1,0.3-0.3,0.3c0,0,0,0,0,0C219.2,119.7,219.3,119.6,219.4,119.5
			C219.4,119.5,219.4,119.5,219.4,119.5z"/>
	</g>
	<g>
		<path class="st61" d="M212,158.8C212,158.8,211.9,158.9,212,158.8c-0.1,0.1-0.2,0-0.2,0C211.8,158.8,211.9,158.7,212,158.8
			C211.9,158.7,212,158.8,212,158.8z"/>
	</g>
	<g>
		<path class="st61" d="M211.3,159C211.4,159.1,211.4,159.1,211.3,159c0.1,0.1,0,0.2,0,0.2c0,0-0.1-0.1-0.1-0.1
			C211.3,159.1,211.3,159.1,211.3,159z"/>
	</g>
	<g>
		<path class="st63" d="M219.8,119.3c-0.1,0.1-0.2,0.1-0.4,0.2c0,0,0,0,0,0c0.1-0.1,0.2-0.2,0.3-0.3
			C219.7,119.2,219.7,119.2,219.8,119.3z"/>
	</g>
	<g>
		<path class="st61" d="M210.4,159.6c-0.1,0-0.2,0.1-0.3,0.1c0.1-0.1,0.1-0.2,0.2-0.2C210.3,159.5,210.3,159.6,210.4,159.6z"/>
	</g>
	<g>
		<path class="st63" d="M219.6,119.1c0.1,0,0.2-0.1,0.3-0.1c0,0.1-0.1,0.2-0.1,0.3C219.7,119.2,219.7,119.2,219.6,119.1z"/>
	</g>
	<g>
		<path class="st62" d="M139.1,112.1c-0.4,2.6-1.1,4.9-1.7,7.2c-1.8,7.1-3.6,14.3-4.1,21.6c-0.1,1,0.4,2.3-0.4,3
			c-0.7,0.6-2,0.3-3,0.4c-7.2,0.7-14.4,0.9-21.6,1.2c-0.2,0-0.4,0-0.6,0c-3,0.1-3,0.1-2.8-3c0.3-5,0.6-9.9,0.9-14.9
			c0-0.7,0.1-1.2,0.8-1.5C117.5,121.7,128.3,117.2,139.1,112.1z"/>
	</g>
	<g>
		<path class="st62" d="M101.6,127.3c0,6.5,0,12.8,0,19c0,0.7-0.3,0.8-0.9,0.8c-2.1,0-4.1,0-6.2,0c-0.7,0-0.9-0.3-0.9-0.9
			c0-5.1,0-10.1,0-15.2c0-0.6,0.2-0.9,0.7-1.1C96.7,129.1,99,128.3,101.6,127.3z"/>
	</g>
	<g>
		<path class="st56" d="M122.9,158.8c-0.1,0-0.2,0.1-0.3,0.1c-2.5-2.5-2.4-6.8,0.1-8.8c2.5,1.6,2.7,6.1,0.4,8.6
			C123.1,158.7,123,158.8,122.9,158.8z"/>
	</g>
	<g>
		<path class="st58" d="M122.7,150.1c-2.5,2-2.6,6.4-0.1,8.8c-0.9,0.5-1.5,0-2-0.6c-1.6-1.8-1.6-5.9,0.1-7.7
			C121.3,150,121.9,149.6,122.7,150.1z"/>
	</g>
	<g>
		<path class="st58" d="M87.5,118.9c-0.2,0.2-0.4,0.3-0.6,0.2l0,0c0.1-0.2,0.3-0.3,0.4-0.5C87.4,118.8,87.4,118.9,87.5,118.9z"/>
	</g>
	<g>
		<path class="st58" d="M86.9,119.2c0,0.1-0.1,0.1-0.1,0.2c0,0,0-0.1,0-0.1C86.8,119.2,86.8,119.2,86.9,119.2
			C86.9,119.2,86.9,119.2,86.9,119.2z"/>
	</g>
	<g>
		<path class="st58" d="M122.9,158.8c0.1-0.1,0.2-0.1,0.2-0.2C123.1,158.7,123,158.8,122.9,158.8z"/>
	</g>
	<g>
		<path class="st66" d="M174.9,132.9c-2.9,0-2.8,0-3-2.9c-0.2-3.3-0.5-6.7-0.8-10c-0.1-1.2,0.1-1.8,1.4-1.3c0.9,0.3,1.9,0.5,2.9,0.6
			c1.1,0.1,1.5,0.6,1.6,1.8c0.2,3.4,0.5,6.7,0.8,10c0.2,1.4-0.2,2-1.7,1.8C175.7,132.9,175.3,132.9,174.9,132.9z"/>
	</g>
	<g>
		<path class="st66" d="M161.3,120.2c-0.3-1,0.2-1.3,1.4-1.3c1.1,0,2.2-0.2,3.3-0.3c0.6-0.1,0.9,0.1,0.9,0.8c0.3,4,0.7,7.9,1.1,11.9
			c0.1,0.7-0.2,1-0.8,1.1c-1.3,0.2-2.6,0.4-3.9,0.6c-0.6,0.1-0.8-0.2-0.8-0.7C162.1,128.2,161.7,124.3,161.3,120.2z"/>
	</g>
	<g>
		<path class="st66" d="M154.2,132c0.2,0.6-0.1,0.9-0.6,1c-1.7,0.3-3.4,0.7-5.2,1c-0.6,0.1-0.8-0.2-0.8-0.7
			c-0.5-2.9-0.9-5.8-1.4-8.6c-0.1-0.6,0.1-0.8,0.6-0.9c1.9-0.3,3.7-0.7,5.6-1.1c0.7-0.2,1,0.1,1.1,0.9
			C153.7,126.4,154,129.3,154.2,132z"/>
	</g>
	<g>
		<path class="st55" d="M138.9,100c0.2,0,0.3,0,0.5-0.1c0,0.3-0.2,0.2-0.3,0.2C139,100.1,139,100.1,138.9,100z"/>
	</g>
	<g>
		<path class="st56" d="M233.7,120.3c2.3,0,3.6,0.8,4.4,2.7c0.3,0.8,0.2,1.3-0.7,1.4c-1.6,0.2-3.2,0.3-4.8,0.4c-0.9,0-1-0.5-0.9-1.2
			C231.9,122.2,232.9,121.3,233.7,120.3C233.8,120.3,233.7,120.3,233.7,120.3z"/>
	</g>
	<g>
		<path class="st67" d="M93.8,93.7c-4.6-0.3-15.6-1.8-16.2-6c-0.3-2.1,2.1-4.9,4.3-5.1c2.1-0.2,3.1,1.8,5.3,3.4
			c8.1,5.9,21.7-0.9,24-3.7c0.3-0.4,0.4-0.7,0.4-1c0-1.1-2.4-2.1-7.2-2.9c-2.5-0.5-5-1.1-7.5-1.9c-2.5-0.8-4.5-2.2-6.1-4
			c-1.5-1.7-2.2-4.3-2.1-7.8c0.4-4,2.1-7.8,5.2-11.3c3-3.6,6.7-6.5,11-8.8c4.3-2.3,8.5-3.7,12.6-4.1c0.8-0.1,1.6-0.1,2.3-0.1
			c3,0.1,5.6,1.1,7.6,2.9c1.7,1.8,2.4,3.7,2.4,5.7c-0.1,3.4-1.7,5.8-4.6,7.4c0,0-0.8,0.5-1.7,0.9c-6.6,3-15.4,1.1-15.9-1.4
			c-0.2-1.1,1.1-2.5,2.3-3c1.3-0.5,2.5-0.1,3.6,0.2c4.8,1.2,10.2,0,10.6-1.5c0.2-0.7-0.8-1.5-1-1.7c-0.7-0.5-1.7-0.8-3.1-0.9
			c-0.9,0-2.3,0.1-4.3,0.4c-2,0.3-5.2,1.9-9.6,4.8c-0.6,0.4-1.8,1.4-3.4,2.9c-1.6,1.5-3.1,3.2-4.5,5.2c-1.1,1.6-1.7,3.3-1.8,4.9
			c0,0.3,0,1.1,0.2,2.3c0.1,1.2,1.7,2.5,4.7,3.9c1.4,0.6,3.1,1.1,5,1.6c2.3,0.5,4.4,1.2,6.3,2.1c1.9,0.9,3.1,2.1,3.6,3.7
			c0.1,0.3,0.1,0.6,0.1,1c0,0.8-0.3,1.9-0.9,3.1c-0.6,1.3-1.6,2.6-3,3.9c-1.6,1.5-3.5,2.3-5.5,3C100,94.1,93.8,93.7,93.8,93.7z"/>
	</g>
	<g>
		<path class="st67" d="M127.7,91.4c-1.8,0.6-4.6,0.5-5.5-0.8c-1.6-2.3,4.5-5.8,5.7-14.1c0.9-6.3,0.6-9.9,0.6-9.9
			c-0.1-1-0.3-2.2,0.1-3.7c0.6-2.8,2.7-5.6,4.6-5.5c0.5,0,0.9,0.2,0.9,0.2c0.8,0.4,1.5,1.2,1.9,2.5c0.2,0.7,0.3,1.3,0.3,1.9
			c0,0.4-0.1,0.9-0.4,1.6c-0.5,1.4-1.3,2.2-1.5,2.6c-1.2,1.6-0.5,2.9-1.1,5.4c-0.8,3.3-2.4,2.6-3.9,6.7c-1.1,3-0.9,5.6-1,6.4
			c0,1.4,0,2.2,0.3,2.2c-1.1-0.1-2.2-0.3-3.2-0.4c0.4,0.1,0.8,0.2,1.2,0c0.5-0.4,0.5-1.2,0.5-1.7c0.1-3,1.5-5.9,2.5-7.7
			c0.2-0.3,0.3-0.6,0.5-1.1c0.6-1.4,0.7-2.8,3.7-10.9c0.6-1.8,0.9-2.5,1.7-3.4c2.2-2.6,6.3-3.8,8.5-2.3c1.3,0.9,2.2,1.9,2.2,1.9
			c0.7,1,1.3,1.6,1.7,1.6c0.3,0,0.6-0.2,1-0.5c0.4-0.4,0.7-0.5,1.2-0.5c0.6,0,1.1,0.3,1.5,0.9c0.2,0.3,0.3,0.7,0.3,1.1
			c0,0.2,0,0.3-0.1,0.5c-0.7,2.1-2,3.1-4,3c-1.1,0-1.9-0.5-2.2-0.7c-0.6-0.3-0.6-0.5-1.5-1.2c-1.1-0.9-1.7-1.4-2.2-1.4
			c-1.1-0.1-2,1-2.3,1.5c-0.6,0.6-1.5,1.8-2.4,3.4c-4.3,7.4-4.4,17.7-7.2,21.2C129.2,91,128.2,91.3,127.7,91.4z"/>
	</g>
	<g>
		<path class="st67" d="M160.2,90.1c-2.1-0.1-3.9-0.8-5.4-2.2c-1.5-1.4-2.6-3.4-3.1-6c-0.3-1.4-0.4-2.8-0.3-4.2
			c0-1.3,0.3-3.1,0.8-5.2c0.5-2.2,1.7-4.5,3.6-6.9c3.7-4.5,7.7-6.6,11.9-6.5c4.1,0.1,6.4,2.2,6.8,6.3c0,0.4,0,0.7,0,1.1
			c-0.1,2.1-1,4.6-2.9,7.3c-2.4,3.2-4.9,4.8-7.5,4.9l-1,0c-0.7,0-1.3-0.1-1.9-0.2c-0.4-0.1-0.8-0.1-1.1-0.1c-0.6,0-1.1,0.1-1.6,0.3
			c-0.5,0.2-0.8,1.1-0.9,2.8c0,1.4,0.3,2.6,1.1,3.6c0.9,1.3,2.2,1.9,4,2c1.3,0,2.8-0.3,4.4-1.2c2.4-1.3,4.4-2.5,5.9-3.8
			c1.5-1.2,2.7-2.4,3.7-3.4c1.8-1.9,2.9-2.8,3.4-2.8c0.1,0,0.2,0,0.4,0c0.2,0,0.3,0.2,0.3,0.7c0,0.4-0.3,0.9-0.7,1.6
			c-0.5,0.7-1.3,1.7-2.5,2.8c-1.2,1.2-3,2.6-5.2,4.3c-4,2.9-7.4,4.5-10.3,4.8C161.4,90.1,160.8,90.1,160.2,90.1z M162.1,75.8
			c2.4,0.1,4.5-0.8,6.3-2.6c1.1-1,1.6-2.3,1.7-3.9c0.1-1.8-0.4-2.8-1.3-2.8c-0.5,0-1.2,0.2-2,0.8c-3.5,2.2-5.6,4-6.4,5.3
			c-0.3,0.6-0.5,1.1-0.5,1.5c0,0.5,0.2,0.9,0.7,1.2C160.9,75.6,161.5,75.7,162.1,75.8z"/>
	</g>
	<g>
		<path class="st67" d="M186.8,91c-2.1-0.1-3.9-0.8-5.4-2.2c-1.5-1.4-2.6-3.4-3.1-6c-0.3-1.4-0.4-2.8-0.3-4.2c0-1.3,0.3-3.1,0.8-5.2
			c0.5-2.2,1.7-4.5,3.6-6.9c3.7-4.5,7.7-6.6,11.9-6.5c4.1,0.1,6.4,2.2,6.8,6.3c0,0.4,0,0.7,0,1.1c-0.1,2.1-1,4.6-2.9,7.3
			c-2.4,3.2-4.9,4.8-7.5,4.9l-1,0c-0.7,0-1.3-0.1-1.9-0.2c-0.4-0.1-0.8-0.1-1.1-0.1c-0.6,0-1.1,0.1-1.6,0.3
			c-0.5,0.2-0.8,1.1-0.9,2.8c0,1.4,0.3,2.6,1.1,3.6c0.9,1.3,2.2,1.9,4,2c1.3,0,2.8-0.3,4.4-1.2c2.4-1.3,4.4-2.5,5.9-3.8
			c1.5-1.2,2.7-2.4,3.7-3.4c1.8-1.9,2.9-2.8,3.4-2.8c0.1,0,0.2,0,0.4,0c0.2,0,0.3,0.2,0.3,0.7c0,0.4-0.3,0.9-0.7,1.6
			c-0.5,0.7-1.3,1.7-2.5,2.8c-1.2,1.2-3,2.6-5.2,4.3c-4,2.9-7.4,4.5-10.3,4.8C188,91,187.4,91,186.8,91z M188.7,76.7
			c2.4,0.1,4.5-0.8,6.3-2.6c1.1-1,1.6-2.3,1.7-3.9c0.1-1.8-0.4-2.8-1.3-2.8c-0.5,0-1.2,0.2-2,0.8c-3.5,2.2-5.6,4-6.4,5.3
			c-0.3,0.6-0.5,1.1-0.5,1.5c0,0.5,0.2,0.9,0.7,1.2C187.5,76.5,188,76.6,188.7,76.7z"/>
	</g>
	<g>
		<g>
			<path class="st67" d="M131.9,41.9c-0.1-3.2-0.3-6.2-0.4-9.3c0.4,0.2,0.7,0.3,0.9,0.4c2.3,1.2,4.7,2.4,7,3.5
				c2.1,0.9,3,0.6,4.4-1.2c0.6-0.8,1.2-1.7,1.8-2.5c0.2-0.4,0.2-0.9,0.3-1.3c-0.5-0.1-1.1-0.3-1.6-0.1c-0.6,0.1-1.1,0.5-1.6,0.9
				c-1.1,0.9-2.2,0.7-3.3,0c-3.7-2.3-7.5-4.5-11.2-6.7c-1.4-0.8-2.9-1.7-4.4-2.4c-1.4-0.7-2.9-0.6-4.3,0.1c-1,0.5-1.1,1-0.2,1.7
				c2,1.4,4.1,2.7,6.1,4c0.7,0.4,1,0.9,1.2,1.6c0.8,2.8,1.6,5.5,2.4,8.3C129.5,40.1,130.3,41.2,131.9,41.9z"/>
		</g>
		<g>
			<path class="st67" d="M141.6,26.6c-0.9-0.9-1.8-1.1-2.8-0.9c-2.3,0.3-4.6,0.7-7,1.3c1.2,0.7,2.3,1.4,3.5,2.1
				c0.2,0.1,0.4,0.1,0.6,0C137.8,28.2,139.7,27.4,141.6,26.6z"/>
		</g>
	</g>
	<g>
		<path class="st67" d="M181.6,82.9c0.6,1.2,1.3,2.3,2.2,3.2c0.4,0.5,0.9,0.9,1.4,1.2c0.5,0.3,1.1,0.6,1.6,0.7
			c1.1,0.3,2.3,0.3,3.4-0.1c1.1-0.3,2.3-0.9,3.4-1.5c1.2-0.6,2.2-1.2,3.2-2c1-0.7,2-1.5,2.9-2.4c0.9-0.9,1.7-1.8,2.4-2.7
			c0.7-1,1.4-2,1.9-3.1c0.1-0.3,0.3-0.5,0.4-0.8l0.4-0.8c0.1-0.3,0.2-0.6,0.4-0.9c0.1-0.3,0.2-0.6,0.3-0.9c0.4-1.2,0.8-2.3,1-3.5
			c0.4-2.3,0.5-4.7,0-6.9c0-0.3-0.2-0.5-0.2-0.8c-0.1-0.3-0.2-0.5-0.3-0.8l-0.3-0.8l-0.4-0.8c-0.5-1-1.1-1.9-1.9-2.8
			c-1.5-1.7-3.3-3.2-5.4-4.3c-0.5-0.3-1-0.5-1.6-0.8c-0.3-0.1-0.5-0.2-0.8-0.3c-0.3-0.1-0.5-0.2-0.8-0.3c-1.1-0.4-2.2-0.6-3.3-0.7
			c-2.2-0.2-4.6,0.1-7,0.8c-2.4,0.6-4.9,1.5-7.5,2.3c-1.3,0.4-2.6,0.7-4,1c-1.4,0.3-2.8,0.5-4.2,0.6c-1.4,0.1-2.8,0.1-4.2,0
			c-1.4-0.1-2.8-0.3-4.2-0.7c-1.4-0.3-2.7-0.8-4-1.3c-1.3-0.5-2.5-1.2-3.7-1.9c-2.4-1.4-4.5-3.1-6.5-4.9c-0.5-0.5-1-0.9-1.4-1.4
			c-0.5-0.5-0.9-1-1.4-1.5c-0.9-1-1.7-2.1-2.5-3.1c0.5,0.4,1,0.9,1.5,1.3c0.5,0.4,1,0.8,1.5,1.3c0.5,0.4,1,0.8,1.6,1.2
			c0.5,0.4,1.1,0.8,1.6,1.1c2.1,1.5,4.4,2.8,6.7,3.8c2.3,1,4.7,1.8,7.2,2.1c2.4,0.4,4.9,0.4,7.3,0c2.4-0.3,4.8-1,7.2-1.9
			c2.4-0.9,4.9-1.8,7.6-2.6c2.7-0.8,5.6-1.3,8.7-1.1c1.5,0.1,3,0.4,4.4,0.8c1.4,0.4,2.8,1,4.1,1.7c2.6,1.4,4.9,3.3,6.9,5.6
			c1.9,2.3,3.3,5.2,3.8,8.2c0.6,3,0.4,6-0.3,8.8c-0.4,1.4-0.8,2.8-1.4,4.1c-0.1,0.3-0.3,0.6-0.4,1c-0.1,0.3-0.3,0.6-0.5,0.9l-0.5,1
			c-0.2,0.3-0.4,0.6-0.5,0.9c-1.9,3.3-4.4,5.3-5.7,6.4c-0.8,0.7-2,1.5-3.5,2.3c-0.6,0.3-1.4,0.7-2.4,1.2c-1.1,0.5-8,3.9-9.3,2.2
			c-0.2-0.3-0.1-0.6-0.5-1.1c-0.5-0.7-1.2-0.6-1.8-1.2c-0.5-0.5-1-1-1.4-1.6C182.4,85.5,181.9,84.2,181.6,82.9z"/>
	</g>
	<g>
		<path class="st68" d="M212.7,158.5c0.4-0.1,0.8-0.2,1.1-0.4c3.9-2.1,7.8-4.1,11.7-6.4c4.5-2.6,8.9-5.4,12.4-9.4
			c2.1-2.3,3.6-4.8,3.4-8.1c-0.2-2.9-2.1-4.9-4.6-4.6c-2.9,0.4-5.8,3.5-6,6.4c-0.3,4.2-1.3,8.3-4.2,11.6c-1.6,1.8-3.3,3.4-5.2,4.9
			c-2.8,2.1-5.9,3.8-8.8,5.8c-0.1,0.1-0.2,0.2-0.2,0.2C212.5,158.7,212.6,158.6,212.7,158.5z"/>
	</g>
	<g>
		<path class="st68" d="M249.5,108.1c-0.3,1.1-0.2,2.1,0,3.2c0.3,2.6,1.2,5.1,1.3,7.8c0.1,3.5,0.2,7-1.5,10.3c1,0,1.4-0.5,1.6-1.1
			c0.4-0.8,0.6-1.7,0.7-2.7c0.7-5.3-0.1-10.5-0.5-15.7c0-0.7,0-1.3,0-2c0.1-1.6,1-2.9,2.3-4c-0.3-0.1-0.4-0.1-0.5-0.1
			c-9.2,2.9-18.3,6.1-26.8,10.7c-2,1.1-4.1,2.2-5.6,4.1c0,0.1-0.1,0.2-0.1,0.3c0.1,0,0.2-0.1,0.3-0.1c8.6-5.4,18.2-8.4,27.7-11.6
			C249.4,106.7,249.8,107,249.5,108.1z"/>
	</g>
	<g>
		<path class="st68" d="M210.8,159.4c-0.2-0.2-0.4-0.1-0.5,0.1c-0.1,0.1-0.1,0.2-0.2,0.2c0.1,0,0.2-0.1,0.3-0.1
			C210.5,159.6,210.7,159.5,210.8,159.4z"/>
	</g>
	<g>
		<path class="st68" d="M219.4,119.5c-0.1,0.1-0.2,0.2-0.3,0.3C219.3,119.8,219.4,119.7,219.4,119.5c0.1-0.1,0.3-0.1,0.4-0.2
			c0-0.1,0.1-0.2,0.1-0.3c-0.1,0-0.2,0.1-0.3,0.1C219.5,119.2,219.5,119.3,219.4,119.5z"/>
	</g>
	<g>
		<path class="st68" d="M211.3,159.2c0,0,0.1,0,0.1-0.1c0,0-0.1-0.1-0.1-0.1C211.3,159.1,211.3,159.1,211.3,159.2
			C211.3,159.1,211.3,159.2,211.3,159.2z"/>
	</g>
	<g>
		<path class="st68" d="M209.6,160.1C209.6,160.1,209.6,160,209.6,160.1c0.1-0.1,0-0.1,0-0.1C209.5,159.9,209.5,160,209.6,160.1
			C209.5,160,209.5,160.1,209.6,160.1z"/>
	</g>
	<g>
		<path class="st68" d="M211.9,158.9C211.9,158.9,212,158.8,211.9,158.9c0.1-0.1,0-0.1,0-0.1C211.9,158.7,211.8,158.8,211.9,158.9
			C211.8,158.8,211.9,158.9,211.9,158.9z"/>
	</g>
	<g>
		<path class="st68" d="M154.9,169.8c2.2-0.1,4.3-0.4,6.5-0.3c1,0.1,1.9,0,2.9-0.3c1.2,0,2.3,0,3.5,0c0-0.1,0-0.2,0-0.3
			c-1.2,0-2.3,0-3.5,0c-1.9,0.3-3.8,0.3-5.6,0.3c-1.3,0-2.5-0.2-3.7,0.3c-5.5,0-11,0-16.4,0c-12.2-0.1-24.3-0.7-36.4-1.8
			c7.9,1,15.8,1.4,23.7,1.7c5.3,0.2,10.7,0.5,16,0.7c1.4,0,2.7-0.1,4.1-0.2C148.8,169.6,151.9,169.8,154.9,169.8z"/>
	</g>
	<g>
		<path class="st68" d="M219,120.1c0-0.1,0.1-0.2,0.1-0.3c-0.1,0.1-0.1,0.2-0.2,0.3C218.9,120.1,218.9,120.1,219,120.1z"/>
	</g>
	<g>
		<path class="st68" d="M244.4,120.9c-0.2-1-0.5-2.1-1.6-3c0.1,0.5,0.1,0.8,0.2,1c0.4,0.9,0.7,1.9,0.8,3c0,0.8-1.1,1.6-2.2,1.6
			c-1,0-0.6-0.8-0.7-1.3c-0.1-0.6,0.5-1.4-0.7-1.7c-0.4-0.1-0.4-1.1-1-1.5c0,0,0,0,0,0l0,0c0,0,0,0,0,0c0-0.4-0.2-0.6-0.6-0.6
			c0,0,0,0,0,0l0,0c0,0,0,0,0,0c0.1-0.3,0-0.5-0.3-0.6l0,0c-0.1-0.1-0.2-0.2-0.3-0.3c-0.4-0.2-0.5-0.8-0.8-0.9
			c-0.6-0.2-1-1.3-1.8-0.3c-0.4,0.1-0.9-0.2-1.1,0.3c-0.1,0-0.3,0-0.4,0c-0.7-0.6-1.1-0.2-1.6,0.3c-1.2,1.3-1.7,2.8-1.9,4.5
			c-0.1,1,0.3,2.2-0.2,2.8c-0.6,0.9-1.9-0.1-2.9,0c4.1,3.7,17.3,1.6,20.6-3.5c-0.7,0.3-1.3,0.5-1.8,0.8
			C245,122.2,244.6,121.9,244.4,120.9z"/>
	</g>
	<g>
		<path class="st68" d="M78.8,161.7C78.8,161.7,78.8,161.7,78.8,161.7c0-0.1-0.1-0.1-0.1-0.1c-1.3-1.9-2.7-3.7-5.4-3.7
			c-0.8,0-1.7-0.4-2.5-0.8c-3.7-1.6-6.5-4.4-9.1-7.4c-0.9-1.1-1.8-2.3-2.9-3.8c0.3,2.7,1.1,4.6,2.4,6.4c2,2.6,4.6,4.5,7.5,5.9
			c1.9,0.9,3.8,1.9,5.8,2.5c0.3-0.1,0.6-0.2,0.9-0.3c0.6,0.3,1.2,0.7,1.8,1c0.4,0.1,0.9,0.1,1.3,0.2
			C78.7,161.6,78.8,161.7,78.8,161.7z"/>
	</g>
	<g>
		<path class="st68" d="M239.5,115.3c0,0,0.1,0,0.1,0c0,0-0.1-0.1-0.1-0.1C239.6,115.2,239.5,115.2,239.5,115.3z"/>
	</g>
	<g>
		<path class="st68" d="M242.1,117.1c0.2,0.2,0.2,0.6,0.5,0.5c0.3-0.1,0-0.4-0.1-0.5c-0.4-0.6-0.8-1.2-2-1.4
			C241.1,116.4,241.4,116.9,242.1,117.1z"/>
	</g>
	<g>
		<path class="st68" d="M160.4,154.5c-2.6,0.2-5.2,0.5-7.8,0.7C155.3,155.6,157.9,155.2,160.4,154.5z"/>
	</g>
	<g>
		<path class="st68" d="M132.3,155.8c4.6,0.8,9.1,0.3,13.7,0.2c0.2,0,0.4-0.1,0.7-0.2c-4.8-0.3-9.6-0.6-14.3-1.1
			c-0.4,0-1.1-0.3-1.2,0.4C131.2,155.8,131.9,155.7,132.3,155.8z"/>
	</g>
	<g>
		<path class="st68" d="M209,160.4c0,0,0.1,0,0.1-0.1c0,0-0.1-0.1-0.1-0.1C208.9,160.2,208.9,160.2,209,160.4
			C208.9,160.3,208.9,160.3,209,160.4z"/>
	</g>
	<g>
		<path class="st68" d="M87.1,151.3c-7.8-0.6-15.4-2.3-23.1-3.8C71.4,150.1,79.1,151.4,87.1,151.3z"/>
	</g>
	<g>
		<path class="st68" d="M186.3,158.7c0.1,0,0.3-0.1,0.4-0.1c0,0-0.1-0.1-0.1-0.1C186.5,158.5,186.4,158.6,186.3,158.7
			c-1.8,0.3-3.5,0.6-5.3,0.9C182.9,159.8,184.7,159.8,186.3,158.7z"/>
	</g>
	<g>
		<path class="st68" d="M140.8,161.6c1.7,0.3,3.5,0.3,5.2,0.3c8.3,0.1,16.7-0.2,25-0.9c2-0.1,4.1-0.2,6.1-0.9c-2,0.2-4,0.4-6,0.5
			c-5,0.1-10,0.3-15.1,0.4c-5.4,0.1-10.9,0-16.4,0C139.9,161.6,140.4,161.5,140.8,161.6z"/>
	</g>
	<g>
		<path class="st68" d="M169.3,168.8c4.8,0.1,9.6-0.4,14.4-0.8c0-0.1,0-0.3,0-0.4C178.9,167.9,174.1,168.3,169.3,168.8z"/>
	</g>
	<g>
		<path class="st68" d="M208.2,160.8c0.1-0.1,0.1-0.2,0.2-0.3c-0.1,0-0.2,0-0.3-0.1c0,0.1-0.1,0.2-0.1,0.3
			C208.1,160.8,208.2,160.9,208.2,160.8z"/>
	</g>
	<g>
		<path class="st69" d="M238.5,118.3C238.5,118.3,238.5,118.3,238.5,118.3C238.4,118.3,238.4,118.3,238.5,118.3L238.5,118.3z"/>
	</g>
	<g>
		<polygon class="st69" points="239,118.9 239,118.9 239,118.9 		"/>
	</g>
	<g>
		<path class="st69" d="M219.1,119.8C219.1,119.8,219.1,119.8,219.1,119.8C219.1,119.8,219.1,119.8,219.1,119.8
			C219.1,119.8,219.1,119.8,219.1,119.8C219.1,119.8,219.1,119.8,219.1,119.8z"/>
	</g>
	<g>
		<path class="st69" d="M74.6,160.7c-2-0.6-3.9-1.6-5.8-2.5c-2.9-1.4-5.5-3.3-7.5-5.9c-1.4-1.8-2.2-3.8-2.4-6.4
			c1.1,1.5,1.9,2.7,2.9,3.8c2.6,3,5.3,5.8,9.1,7.4c0.8,0.3,1.7,0.8,2.5,0.8c2.7,0,4.1,1.8,5.4,3.7c0,0,0.1,0,0.1,0.1
			c0,0,0,0.1,0,0.1c0,0-0.1-0.1-0.1-0.1c-0.4,0-0.9-0.1-1.3-0.2c6.1,3,12.8,4.3,19.5,5.5c1.7,0.3,3.4,0.6,5.1,0.8
			c12.1,1.1,24.3,1.7,36.4,1.8c5.5,0,11,0,16.4,0c1.2-0.4,2.5-0.3,3.7-0.3c1.9,0,3.8,0,5.6-0.3c1.2,0,2.3,0,3.5,0c0,0.1,0,0.2,0,0.3
			c-1.2,0-2.3,0-3.5,0c-0.9,0.4-1.9,0.4-2.9,0.3c-2.2-0.1-4.4,0.2-6.5,0.3c-3,0-6.1-0.1-9.1,0.1c-1.4,0.1-2.7,0.2-4.1,0.2
			c5.9,0.2,11.9,0.4,17.8,0.6c7.7,0.2,15.3-0.4,23-0.9c7.6-0.5,15.2-1.2,22.7-2.2c3.2-0.4,6.4-1,9.5-1.7c4.4-1.5,8.7-3.4,12.8-5.9
			c0.2-0.1,0.4-0.1,0.5-0.2c1.2-1.2,2.6-2,4.1-2.8c3.7-3,7.2-6.3,10.6-9.7c1.1-1.4,2.3-2.8,3.3-4.3c5.7-8.4,8.1-17.6,6.2-27.7
			c-0.6-3.3-0.6-6.5,0.8-9.6c0.4-0.8,1.4-1.7,1-2.2c-0.6-0.6-1.8,0-2.8,0c-0.1,0-0.3,0.1-0.4,0.1c-4.5,0.9-8.8,2.5-13,4.3
			c-5.9,2.5-11.8,5.1-17,9c-4,3-3.9,6.1,0.4,8.7c1.3,0.8,1.2,1.5,0.5,2.5c-1.9,2.7-4.4,4.7-7.5,5.7c-5.1,1.7-10.3,3-15.4,4.4
			c0,0.1,0,0.3,0,0.4c3.8-0.4,7.6-1.5,11.4-1.3c0.7,0,1.4,0,2.1,0.2c-5.9,1.1-11.7,2.2-17.6,3.3c-7.5,1.4-14.9,2.6-22.5,3.7
			c-4.7,0.6-9.5,1.1-14.2,1.6c-3.7,0.4-7.3,1.1-11,1.2c-2,0.5-4.1,0.7-6.2,0.8c-4.6,0.5-9.2,1.1-13.8,1.6c0.3,2,0.8,4,0.6,6
			c-0.2,2-0.7,3.9-2.3,5.3c-0.7,0.6-1.4,0.9-2.3,0.7c-2.2,0.2-3.3-0.5-4.3-2.7c-1.2-2.9-1.2-5.9-0.2-8.9c-0.5-0.5-1.1-0.3-1.7-0.3
			c-3.9,0-7.9,0-11.9-0.1c2.1-0.4,4.1-0.5,6.2-0.5c2.6,0,5.2-0.2,7.8-0.5c-0.2-0.1-0.3-0.3-0.5-0.3c-2.2-0.3-4.4,0.5-6.6,0.3
			c-0.1,0-0.2,0-0.4-0.1c-0.4,0-0.7,0-1.1,0c-0.4,0.4-0.8,0.4-1.2,0.1c-0.7,0-1.4,0-2.1,0.1c-0.1,0.1-0.2,0.1-0.3,0
			c-2.7,0.1-5.3,0.2-8,0.3c-3.8,0.1-7.6,0.1-11.3-0.4c-3.2,0.1-6.3-0.4-9.4-0.8c-4.2-0.6-8.2-1.6-12.3-2.5
			c-4.5-0.8-8.3-2.4-10.3-6.9c-0.2-0.3-0.4-0.7-0.7-1c-1.1-1.1-2.8-1.6-4-1.1c-1.3,0.6-1.6,1.8-1.6,3c-0.1,1.4,0.9,1.8,2,2.2
			c1.1,0.4,1.1-0.6,1.4-1.2c0.6-1.1,1.2-1.2,1.9,0c0.5,0.8,0.8,1.7,1,2.6c1.3,5.1,3.9,9.4,7.7,12.9c1.8,1.7,3.7,3.3,5.5,4.9
			C71.1,161.4,73,161.1,74.6,160.7z M227.2,124.2c1-0.2,2.2,0.9,2.9,0c0.5-0.7,0.1-1.9,0.2-2.8c0.1-1.7,0.7-3.2,1.9-4.5
			c0.4-0.5,0.9-0.9,1.6-0.3c0.1,0,0.3,0,0.4,0c0.3-0.5,0.7-0.2,1.1-0.3c0.8-1,1.2,0.1,1.8,0.3c0.4,0.1,0.4,0.7,0.8,0.9
			c0.1,0.1,0.2,0.2,0.3,0.3l0,0c0.3,0.1,0.4,0.3,0.3,0.6c0.4,0,0.6,0.2,0.6,0.6c0.6,0.3,0.6,1.4,1,1.5c1.2,0.3,0.6,1.1,0.7,1.7
			c0.1,0.5-0.2,1.3,0.7,1.3c1.1,0,2.3-0.7,2.2-1.6c0-1-0.3-2-0.8-3c-0.1-0.2-0.1-0.4-0.2-1c1.2,0.9,1.4,2,1.6,3
			c0.3,1.1,0.6,1.4,1.6,0.7c0.5-0.3,1-0.5,1.8-0.8C244.5,125.8,231.3,128,227.2,124.2z M239.5,115.3c0,0,0-0.1,0-0.1
			c0,0,0.1,0.1,0.1,0.1C239.6,115.3,239.6,115.3,239.5,115.3z M240.6,115.7c1.1,0.2,1.5,0.8,2,1.4c0.1,0.2,0.4,0.4,0.1,0.5
			c-0.3,0.1-0.4-0.3-0.5-0.5C241.4,116.9,241.1,116.4,240.6,115.7z M219.8,119.3c-0.1,0.1-0.2,0.1-0.4,0.2c0,0.2-0.1,0.3-0.3,0.3
			c0,0,0,0,0,0c0,0,0,0,0,0c0,0.1-0.1,0.2-0.1,0.3c0,0-0.1,0-0.1-0.1c0.1-0.1,0.1-0.2,0.2-0.3c0,0,0,0,0,0c0,0,0,0,0,0
			c0.1-0.1,0.2-0.2,0.3-0.3c0.1-0.1,0.2-0.2,0.3-0.3c0.1,0,0.2-0.1,0.3-0.1C219.9,119.1,219.8,119.2,219.8,119.3z M220.6,118.7
			c-0.1,0-0.2,0.1-0.3,0.1c0-0.1,0.1-0.2,0.1-0.3c1.5-1.8,3.6-2.9,5.6-4.1c8.5-4.6,17.6-7.8,26.8-10.7c0.1,0,0.2,0,0.5,0.1
			c-1.3,1.1-2.1,2.3-2.3,4c-0.1,0.7-0.1,1.3,0,2c0.4,5.2,1.2,10.4,0.5,15.7c-0.1,0.9-0.3,1.8-0.7,2.7c-0.3,0.6-0.7,1.1-1.6,1.1
			c1.7-3.3,1.6-6.8,1.5-10.3c-0.1-2.6-0.9-5.2-1.3-7.8c-0.1-1.1-0.2-2.1,0-3.2c0.3-1.1-0.1-1.4-1.2-1
			C238.8,110.2,229.2,113.3,220.6,118.7z M212.6,158.3c2.9-1.9,6-3.6,8.8-5.8c1.9-1.5,3.6-3.1,5.2-4.9c3-3.3,3.9-7.3,4.2-11.6
			c0.2-2.9,3.1-6.1,6-6.4c2.5-0.3,4.4,1.6,4.6,4.6c0.2,3.3-1.4,5.8-3.4,8.1c-3.5,4-7.9,6.8-12.4,9.4c-3.8,2.2-7.8,4.3-11.7,6.4
			c-0.3,0.2-0.7,0.3-1.1,0.4c-0.1,0.1-0.2,0.2-0.3,0C212.4,158.5,212.5,158.4,212.6,158.3z M211.9,158.7
			C211.9,158.7,212,158.8,211.9,158.7c0.1,0.1,0,0.1,0,0.1C211.9,158.9,211.8,158.8,211.9,158.7
			C211.8,158.8,211.9,158.7,211.9,158.7z M211.3,159C211.4,159.1,211.4,159.1,211.3,159c0.1,0.1,0,0.2,0,0.2c0,0-0.1-0.1-0.1-0.1
			C211.3,159.1,211.3,159.1,211.3,159z M210.2,159.5c0.2-0.2,0.3-0.3,0.5-0.1c-0.1,0.1-0.3,0.2-0.4,0.3c-0.1,0-0.2,0.1-0.3,0.1
			C210.1,159.7,210.2,159.6,210.2,159.5z M209.6,159.9C209.6,159.9,209.6,160,209.6,159.9c0.1,0.1,0,0.2,0,0.1c0,0-0.1-0.1-0.1-0.1
			C209.5,160,209.5,159.9,209.6,159.9z M209,160.2C209,160.2,209,160.3,209,160.2c0,0.1,0,0.2,0,0.2c0,0-0.1-0.1-0.1-0.1
			C208.9,160.2,208.9,160.2,209,160.2z M208.1,160.5c0.1,0,0.2,0.1,0.3,0.1c-0.1,0.1-0.1,0.2-0.2,0.3c0,0-0.1,0-0.2-0.1
			C208,160.7,208.1,160.6,208.1,160.5z M169.3,168.8c4.8-0.4,9.6-0.8,14.4-1.2c0,0.1,0,0.3,0,0.4
			C178.9,168.4,174.1,168.8,169.3,168.8z M186.2,158.7c0.1-0.1,0.2-0.1,0.3-0.2c0,0,0.1,0.1,0.1,0.1
			C186.5,158.6,186.4,158.6,186.2,158.7c-1.6,1.1-3.4,1.2-5.3,1C182.7,159.3,184.5,159,186.2,158.7z M160.4,154.5
			c-2.6,0.7-5.2,1.1-7.8,0.7C155.2,155,157.8,154.8,160.4,154.5z M156,161c5-0.1,10-0.3,15.1-0.4c2-0.2,4-0.4,6-0.5
			c-2,0.7-4,0.8-6.1,0.9c-8.3,0.7-16.6,1-25,0.9c-1.8,0-3.5,0-5.2-0.3c-0.4-0.1-0.9,0-1.2-0.6C145.1,161,150.6,161,156,161z
			 M132.4,154.6c4.8,0.5,9.5,0.8,14.3,1.1c-0.2,0.1-0.4,0.2-0.7,0.2c-4.6,0.1-9.1,0.6-13.7-0.2c-0.5-0.1-1.1,0-1.1-0.7
			C131.3,154.3,132,154.6,132.4,154.6z M87.1,151.3c-8,0.2-15.6-1.2-23.1-3.8C71.6,148.9,79.2,150.7,87.1,151.3z"/>
	</g>
	<g>
		<path class="st57" d="M102,167.7c-4.6-0.4-9.1-0.9-13.7-1.5c0.2,0.5,0.5,0.6,0.8,0.6c0.9,0.3,1.8,0.6,2.8,0.8
			c6.9,1.4,13.9,1.7,20.9,2c8.5,0.3,17.1,0.2,25.6,0.3c1.1,0.1,2.2,0.1,3.3,0c-5.3-0.2-10.7-0.4-16-0.7
			C117.8,169.1,109.9,168.7,102,167.7z"/>
	</g>
	<g>
		<path class="st57" d="M120.1,171.3c-9.7-0.4-19.3-0.9-28.8-2.7c-7.4-1.4-14.8-3-21.4-7.1c-0.3-0.2-0.5-0.5-0.8-0.7
			c-0.2-0.1-0.4-0.1-0.6-0.2c-0.5-0.2-0.8-0.3-1.1-0.5c-1.1-0.6-2.6-2.3-3.8-2.4c-1.9-0.1-2.2,4.1-4.5,4.5c-2.6,0.5-4.9-4.8-7-4.2
			c-1.1,0.3-0.7,1.8-2.4,3.5c-2,2.1-4.6,2-4.6,2.6c0,0.7,4,0.9,5.9,1.1c7.7,0.8,12.9,3.9,15.3,4.9c5.3,2.2,21.1,3.8,64.9,1.5
			C127.5,171.7,123.8,171.5,120.1,171.3z"/>
	</g>
	<g>
		<path class="st57" d="M74.6,160.7c0.9,0.3,1.8,0.5,2.7,0.7c-0.6-0.3-1.2-0.6-1.8-1C75.2,160.6,74.9,160.6,74.6,160.7z"/>
	</g>
	<g>
		<path class="st57" d="M176.9,171.6c-0.8,0.1-1.6,0.1-2.4,0.2h75.1c1.3-0.8,2.5-1.8,3.7-2.9c0.6-0.6,1.7-2.1,2.1-4.2
			c0.7-3.5-1.2-7.3-4-9.5c-4.4-3.4-9.9-1.5-11.1-1.1c-3.5,1.2-5.6,3.5-6.5,4.6c-0.2,0.1-0.4,0.1-0.5,0.2c-5.8,3.3-12,5.4-18.4,6.8
			c-4.9,1.6-10,2.7-15.1,3.4C192,170.3,184.5,171.1,176.9,171.6z"/>
	</g>
	<g>
		<path class="st57" d="M91.3,168.6c9.5,1.9,19.2,2.3,28.8,2.7c3.7,0.2,7.4,0.3,11.1,0.5h43.3c0.8-0.1,1.6-0.1,2.4-0.2
			c7.6-0.6,15.2-1.4,22.7-2.4c5.2-0.7,10.3-1.8,15.1-3.4c-3.1,0.7-6.3,1.2-9.5,1.7c-7.5,1-15.1,1.7-22.7,2.2
			c-7.6,0.5-15.3,1.1-23,0.9c-5.9-0.1-11.9-0.3-17.8-0.6c-1.1,0-2.2,0-3.3,0c-8.5-0.1-17.1,0-25.6-0.3c-7-0.2-14-0.5-20.9-2
			c-1-0.2-1.9-0.5-2.8-0.8c-0.3-0.1-0.6-0.2-0.8-0.6c4.6,0.6,9.1,1,13.7,1.5c-1.7-0.2-3.4-0.5-5.1-0.8c-6.7-1.2-13.4-2.5-19.5-5.5
			c-0.9-0.2-1.8-0.4-2.7-0.7c-1.6,0.4-3.5,0.7-5.5,0.1c0.3,0.2,0.5,0.5,0.8,0.7C76.5,165.6,83.9,167.2,91.3,168.6z"/>
	</g>
	<g>
		<path class="st70" d="M157.2,172.7c1.1,0,2.3,0,3.4-0.1C161,172.3,161.8,171.8,157.2,172.7z"/>
	</g>
	<g>
		<path class="st70" d="M131.2,171.8c7.6,0.3,15.1,0.7,22.7,0.8c1.1,0,2.2,0,3.3,0c4.6-0.9,3.8-0.4,3.4-0.1
			c4.6-0.1,9.2-0.5,13.8-0.8H131.2z"/>
	</g>
	<g>
		<path class="st71" d="M143.4,152.3l2.3-0.4l0.6,4.2l4.6-0.7l-0.6-4.2l2.4-0.4l1.6,10.7L152,162l-0.7-4.6l-4.6,0.7l0.7,4.6
			l-2.3,0.4L143.4,152.3z"/>
		<path class="st71" d="M159.4,160.4c-0.9-0.3-1.6-0.9-2.2-1.7c-0.6-0.8-0.9-1.7-1.1-2.8c-0.2-1.1-0.1-2.1,0.2-3
			c0.3-0.9,0.8-1.6,1.6-2.2c0.7-0.6,1.6-1,2.7-1.1c1.1-0.2,2-0.1,2.9,0.3c0.9,0.3,1.6,0.9,2.2,1.6c0.6,0.8,0.9,1.7,1.1,2.8
			c0.2,1.1,0.1,2.1-0.2,3c-0.3,0.9-0.8,1.7-1.6,2.2c-0.7,0.6-1.6,1-2.7,1.1C161.2,160.8,160.2,160.7,159.4,160.4z M163.9,157.3
			c0.4-0.7,0.6-1.6,0.4-2.6c-0.1-0.7-0.3-1.3-0.6-1.8c-0.3-0.5-0.7-0.9-1.2-1.1c-0.5-0.2-1-0.3-1.6-0.2c-0.6,0.1-1.1,0.3-1.5,0.7
			c-0.4,0.4-0.7,0.8-0.8,1.4c-0.2,0.6-0.2,1.2-0.1,1.9c0.1,0.7,0.3,1.3,0.6,1.8c0.3,0.5,0.7,0.8,1.2,1.1c0.5,0.2,1,0.3,1.6,0.2
			C162.8,158.5,163.5,158,163.9,157.3z"/>
		<path class="st71" d="M168.5,148.5l2.3-0.4l1.3,8.7l3.9-0.6l0.3,2l-6.2,0.9L168.5,148.5z"/>
		<path class="st71" d="M177.2,147.2l2.3-0.4l1.6,10.7l-2.3,0.4L177.2,147.2z"/>
		<path class="st71" d="M184.4,157.1l-1.6-10.7c0.5-0.1,1.1-0.2,2-0.3c0.9-0.1,1.6-0.2,2-0.3c1.1-0.1,2-0.1,2.8,0.2s1.5,0.8,2.1,1.5
			c0.5,0.7,0.9,1.6,1,2.6c0.2,1.1,0.1,2.1-0.3,3.1c-0.4,0.9-0.9,1.7-1.8,2.3c-0.8,0.6-1.8,1-3,1.2c-0.4,0.1-0.9,0.2-1.7,0.3
			C185.3,157,184.7,157,184.4,157.1z M187.4,154.6c1.1-0.2,1.9-0.6,2.4-1.3s0.7-1.6,0.5-2.7c-0.2-1-0.5-1.7-1.1-2.2
			c-0.6-0.5-1.4-0.6-2.4-0.5l-1.4,0.2l1,6.7L187.4,154.6z"/>
		<path class="st71" d="M197.3,144.2l2.8-0.4l5.6,10.1l-2.4,0.4l-1.2-2.3l-4.2,0.6l-0.5,2.6l-2.4,0.4L197.3,144.2z M201,150
			l-2.1-3.9l-0.8,4.3L201,150z"/>
		<path class="st71" d="M208.3,148.9l-4.5-5.7l2.6-0.4l2.8,3.9l1.5-4.6l2.6-0.4l-2.7,6.8l0.7,4.5l-2.3,0.4L208.3,148.9z"/>
		<path class="st71" d="M217.9,152c-0.6-0.1-1.1-0.2-1.5-0.3l-0.1-2.2c0.5,0.2,1.1,0.4,1.6,0.5s1.1,0.1,1.5,0
			c0.5-0.1,0.9-0.2,1.2-0.5c0.3-0.3,0.4-0.6,0.4-0.9c0-0.3-0.2-0.5-0.4-0.6c-0.2-0.1-0.6-0.2-1.1-0.4l-0.4-0.1c-0.1,0-0.1,0-0.2,0
			c-0.1,0-0.1,0-0.2-0.1c-0.6-0.2-1.2-0.3-1.6-0.5c-0.4-0.2-0.8-0.4-1.1-0.8c-0.3-0.4-0.5-0.9-0.6-1.5c-0.2-1,0.1-1.9,0.7-2.6
			c0.6-0.7,1.5-1.1,2.8-1.3c0.9-0.1,1.9-0.1,3,0.1l0,2.2c-0.4-0.2-0.9-0.3-1.4-0.3c-0.5-0.1-0.9-0.1-1.3,0c-0.5,0.1-0.9,0.2-1.1,0.5
			c-0.2,0.2-0.3,0.5-0.3,0.9c0,0.3,0.2,0.5,0.4,0.6s0.6,0.3,1,0.4l0.7,0.2c0.7,0.1,1.2,0.3,1.6,0.5c0.4,0.2,0.8,0.4,1.2,0.8
			c0.4,0.4,0.6,0.9,0.7,1.6c0.2,1-0.1,1.9-0.7,2.6c-0.6,0.7-1.6,1.1-2.8,1.3C219.1,152.1,218.5,152.1,217.9,152z"/>
	</g>
	<g>
		<g>
			<polygon class="st67" points="43.2,52.9 43.2,52.9 43.2,52.9 			"/>
		</g>
		<g>
			<polygon class="st72" points="43.2,52.9 43.2,52.9 43.2,52.9 43.2,52.9 			"/>
		</g>
		<g>
			<path class="st72" d="M38.6,46.4c-1.7-0.3-3.6-0.3-5.3,0c-4.5,0.9-8.1,3.5-11.2,6.8c-8.2,8.7-11.3,19.3-11.5,31
				c1.4-4.5,2.7-9,4.1-13.6c0.2,0.1,0.5,0.1,0.7,0.2c0.1,1.1,0.2,2.2,0.3,4c1.5-4.2,2.8-7.7,4.1-11.2c0.2,0,0.4,0.1,0.5,0.1
				c0.1,0.9,0.3,1.9,0.5,3.2c2.9-4.3,5.6-8.2,8.2-12c0.3,0.1,0.5,0.3,0.8,0.4c-0.3,1.7-0.6,3.4-1,5.4c3.3-2.9,6.3-5.7,9.5-8.3
				C40,51,42,50,43.2,52.9C44,49,42.8,47.2,38.6,46.4z"/>
		</g>
		<g>
			<path class="st72" d="M32.5,10.7c2.3,1.7,4.3,3.3,6.6,5c-1.2,0.7-2.1,1.2-3.1,1.8c2.2,3.6,4.3,7,6.6,10.9
				c-1.7,0.1-2.8,0.1-4.8,0.1c2.6,5.2,4.9,9.9,7.2,14.6C47,33.5,47.6,24,45,14.7c-0.9-3.2-2.7-6.4-4.8-9.1C37.6,2.4,33.8,1.8,29.4,3
				c2.5,2,4.6,3.7,6.9,5.6C34.8,9.4,33.8,10,32.5,10.7z"/>
		</g>
		<g>
			<path class="st72" d="M48.7,45.9c4.6-1.4,9.1-2.7,13.8-4.1c-1-1.1-1.7-1.9-2.9-3.2c4.3-0.1,7.9-0.2,11.5-0.4
				c-0.1-1-0.2-1.7-0.4-3.1c2.6,1.4,4.7,2.6,7.1,3.9c-0.1-1.4-0.3-2.4-0.4-3.9c2.8,1.3,5.1,2.5,8,3.8c-2.9-6.5-8.9-9.4-16.8-8.8
				C60,31,50.4,39,48.7,45.9z"/>
		</g>
		<g>
			<path class="st72" d="M13.3,24.2c5.3,2.4,10.3,4.7,15.5,7.1c-0.8,1-1.3,1.7-1.9,2.5c4,2.1,7.8,4.1,12.4,6.6
				c-3.4-9.8-9.3-16.1-18.3-19.3c-6.1-2.2-11.8-1.6-14.8,1.2c2.3,0.2,4.6,0.4,6.9,0.7C13.3,23.6,13.3,24.2,13.3,24.2z"/>
		</g>
		<g>
			<path class="st72" d="M9,44.2c1.4-0.6,2.9-1.5,4.5-1.8c2.5-0.5,5.2-0.4,7.7-0.9c2.2-0.4,3.5-0.2,2.9,2.6
				c4.3-0.4,8.2-0.9,12.7-1.3c-11-9.8-30.3-7.9-35.1,2.9C4.2,46,5.8,41.3,9,44.2z"/>
		</g>
		<g>
			<path class="st72" d="M86.6,54.5C82,43.7,63.6,41.1,56.4,49c3.4,0.6,6.7,1.2,9.6,1.7c1-0.8,1.8-1.9,2.5-1.9
				c2.9,0.3,5.9,0.6,8.7,1.6C80.5,51.4,83.5,53.1,86.6,54.5z"/>
		</g>
		<g>
			<path class="st72" d="M60.6,59.1c1,0.1,2.7-0.2,3,0.3c1.4,2.5,2.9,4.9,4.8,7.1c2.1,2.5,2.5,6.4,3.6,9.7
				c4.2-10.7-5.4-25.4-16.7-25.6c1.5,2.5,3,5.1,4.5,7.6C60,58.5,60.3,58.8,60.6,59.1L60.6,59.1z"/>
		</g>
		<g>
			<path class="st72" d="M57.3,67.1c0.7-0.4,1.1-0.8,1.5-1c1.7,3.2,3.4,6.4,5.4,10.2c-0.1-2.3,0.2-4.1-0.2-5.7
				c-0.9-3.9-2.2-7.7-3.3-11.5c-0.3-0.3-0.6-0.6-0.8-1c-3.4-3.4-6.6-7.1-12.5-7.5c1.9,3.7,3.6,7,5.4,10.5c0.5-1.3,0.9-2.2,1.6-3.9
				C55.5,61.1,56.3,64,57.3,67.1z"/>
		</g>
		<g>
			<path class="st72" d="M60.6,59.1c-0.3-0.3-0.6-0.6-0.8-1C60,58.5,60.3,58.8,60.6,59.1L60.6,59.1z"/>
		</g>
		<g>
			<path class="st72" d="M52.2,81.6c1.7,2.3,3.3,4.5,5,6.7c0.1-8.1-1.7-15.4-7-21.5c-2-2.3-4.5-3.6-8.2-3.2c2.1,1.9,3.7,3.3,4.6,5.9
				c1.3,3.9,6.7,6.1,5.4,11.5C51.9,81.2,52.1,81.4,52.2,81.6z"/>
		</g>
		<g>
			<path class="st72" d="M60.9,94.5c2.2,2.8,1.7,7.2,6.3,8.8c2.1,0.8,3.3,4.5,4.7,6.9c1.4,2.6,2.5,5.3,3.9,8.4
				C76.1,107.4,70.1,97.5,60.9,94.5z"/>
		</g>
		<g>
			<path class="st72" d="M60.7,90.4c3-0.9,5.5-1.7,8.2-2.5c-1.3-2.2-1.3-2.3,0.8-2.6c1.8-0.3,3.7-0.6,5.5-0.9c0-0.1-0.1-0.2-0.1-0.4
				c2.8-0.1,5.7-0.2,8.4-0.3C78.9,77.6,64.1,79.2,60.7,90.4z"/>
		</g>
		<g>
			<path class="st72" d="M39.7,106c1.8-2.1,3.2-3.8,4.7-5.4c1.5-1.7,2.9-3.3,4.7-5.3c0.4,1,0.6,1.5,0.8,2.3c2-1.8,3.9-3.5,5.8-5.2
				C47.6,89,38.8,96.3,39.7,106z"/>
		</g>
		<g>
			<path class="st72" d="M83.5,101.9c-0.2-7.1-9.1-12.8-18.7-11.2c0.7,0.5,0.9,0.8,1.3,1c2.2,1.4,4.7,2.1,7.1,2.9
				C77.1,95.9,80.2,99.5,83.5,101.9z"/>
		</g>
		<g>
			<path class="st72" d="M61.8,24.4c-0.3-0.2-0.5-0.3-0.8-0.5c0.5-2.1,1-4.3,1.5-6.4c-2.7,3.1-4.8,6.5-7,9.9
				c-0.9,1.3-2.1,2.3-3.1,3.5c-0.2-0.1-0.4-0.3-0.6-0.4c-0.3,2.1-0.6,4.2-0.9,6.3c0.2,0.1,0.5,0.3,0.7,0.4
				C55,32.9,58.4,28.7,61.8,24.4z"/>
		</g>
		<g>
			<path class="st67" d="M61,150.5c-2.4-5-3.8-9.3-4.4-11.6c-2.2-7.9-3.1-16-2.6-24.4c0.2-4.2,0.7-8.4,1-12.5
				c-5.9,19.3-3.4,38.1,3.5,56.8c-1.8-1.2-3.3-2.6-4.5-4.1c-15.1-20.2-21-43-19.5-68c0.1-1.9-0.6-5.5,3.5-3.1
				c0.2,0.1,0.6-0.2,0.9-0.1c2.5,0.5,6.4,0.3,7.3,1.8c2.1,3.5,5.2,1.7,7.5,3c-3.7-6.3-8.3-8.2-18.9-7.7c1.2-5.5,2.2-10.8,3.7-16
				c1.2-4,3.1-7.7,4.7-11.6c-0.7,0.7-1.6,1.2-2,2c-1.3,2.8-2.6,5.6-3.6,8.4c-10.5,29.4-8.3,58.1,4.3,86.3c1.8,3.9,3.9,7.7,6.2,12.3
				c-5.7-0.8-10.7-1.5-16.4-2.3c1.8,0.7,3,1.1,4.1,1.6c5,1.8,9.9,3.5,16,4.2c2.3,0.2,5.6,0.4,9.6,0c2.7-0.5,5.4-1,8.1-1.5
				C66.9,160.8,63.8,156.3,61,150.5z"/>
		</g>
	</g>
</g>
</svg>
